<?xml version="1.0" standalone="no"?>
<!DOCTYPE svg PUBLIC "-//W3C//DTD SVG 1.1//EN" "http://www.w3.org/Graphics/SVG/1.1/DTD/svg11.dtd" >
<svg xmlns="http://www.w3.org/2000/svg">
<metadata>Generated by IcoMoon</metadata>
<defs>
<font id="font-cop" horiz-adv-x="1024">
<font-face units-per-em="1024" ascent="960" descent="-64" />
<missing-glyph horiz-adv-x="1024" />
<glyph unicode="&#x20;" horiz-adv-x="512" d="" />
<glyph unicode="&#xe900;" glyph-name="add" d="M512 960.857c-282.768 0-512-229.232-512-512.002 0-282.767 229.232-511.998 512-511.998 282.771 0 512 229.23 512 511.998 0 282.77-229.229 512.002-512 512.002zM731 375h-146v-146c0-40.316-32.684-73-73-73s-73 32.684-73 73v146h-147c-40.317 0-73 32.684-73 73s32.683 73 73 73h147v147c0 40.317 32.683 73 73 73s73-32.683 73-73v-147h146c40.316 0 73-32.683 73-73s-32.684-73-73-73z" />
<glyph unicode="&#xe901;" glyph-name="address" d="M641.304 892.434c115.293-51.69 203.15-155.141 229.857-283.588 16.52-79.455 3.396-154.545-31.016-227.327-37.675-79.684-85.574-153.111-140.653-221.617-54.79-68.152-112.538-134.006-169.929-200.074-26.826-30.877-74.191-31.928-102.254-2.1-114.225 121.414-220.408 248.906-298.585 396.85-74.297 133.423-57.237 238.396-44.355 285.17 21.479 77.994 70.582 159.812 149.212 214.563 161.521 112.589 323.011 73.902 407.723 38.123zM477.198 10.221c47.469 55.195 94.445 107.518 138.783 161.941 58.222 71.471 111.396 146.504 152.116 229.465 29.31 59.713 44.312 120.814 31.534 188.333-31.29 165.368-193.861 284.57-363.069 260.947-121.406-16.948-208.787-82.586-259.282-193.005-14.993-24.583-41.136-102.482-13.906-198.819 14.269-40.608 33.707-78.772 55.645-115.776 46.666-78.721 101.803-151.459 160.746-221.424 31.349-37.213 63.961-73.387 97.433-111.662zM475.429 740.568c-100.988 0-182.856-81.868-182.856-182.856 0-100.986 81.868-182.855 182.856-182.855 100.99 0 182.857 81.869 182.857 182.855 0 100.988-81.867 182.856-182.857 182.856zM475.431 447.713c-60.752 0-110 49.249-110 109.999 0 60.752 49.248 110.001 110 110.001 60.75 0 110-49.249 110-110.001 0-60.75-49.25-109.999-110-109.999z" />
<glyph unicode="&#xe902;" glyph-name="announcement1" d="M486.396 882.708c-15.616 7.237-34.116 4.861-47.386-5.999l-237.867-209.282-155.705 0.001c-11.756 0-23.080-4.161-31.409-12.357-8.367-8.197-13.126-19.339-13.126-30.979l-0.903-350.415c0-11.641 4.617-22.816 13.019-31.049 8.33-8.268 19.689-12.883 31.519-12.883h157.901l236.571-208.933c8.148-6.672 18.317-10.113 28.489-10.113 6.418 0 12.874 1.348 18.86 4.152 15.616 7.166 25.641 22.638 25.641 39.636v788.584c0.038 16.926-9.953 32.397-25.604 39.637v0zM247.014 292.571c-8.007 6.53-18.068 10.115-28.49 10.115h-145.381l0.721 291.599c0 0 136.422 0.042 145.565 0.021s18.208 5.283 26.215 11.811l193.213 163.438v-650.699zM684.376 663.658c-21.963 10.22-48.036 0.923-58.71-20.581-10.639-21.576 14.489-47.657 36.271-58.444 2.813-1.456 69.492-35.521 69.492-132.644 0-103.759-67.624-138.145-69.644-139.278-21.997-10.825-46.835-37.154-35.837-58.799 7.825-15.365 23.514-24.238 39.886-24.238 6.671 0 13.488 1.49 19.87 4.615 4.617 2.305 118.868 57.84 118.868 217.7-0.035 154.22-115.293 209.399-120.196 211.669v0zM864.35 792.328c-20.52 12.987-47.784 7.061-61.163-13.095-13.342-20.156 8.437-47.265 28.813-60.536 4.795-3.123 118.857-79.593 118.857-269.901 0-190.732-114.495-267.273-118.857-270.218-20.483-13.447-42.733-40.594-29.064-60.75 8.545-12.668 22.719-19.482 37.070-19.482 8.476 0 17.058 2.414 24.667 7.348 6.24 4.080 159.327 103.332 159.327 343.103 0.030 240.233-153.088 339.413-159.65 343.531v0zM864.35 792.328v0z" />
<glyph unicode="&#xe903;" glyph-name="application" d="M73 374h366v-366h-366v366zM585 374h366v-366h-366v366zM73 887h366v-366h-366v366zM585 887h366v-366h-366v366z" />
<glyph unicode="&#xe904;" glyph-name="approval" d="M0 887v-951h512v73h-439v805h878v-147h73v220zM146.286 448h292.598v-73.143h-292.598v73.143zM146.286 228.57h219.456v-73.143h-219.456v73.143zM146.286 667.428h367.204v-73.143h-367.204v73.143zM1024 228.571l-124.954 181.521c31.358 26.83 51.239 66.688 51.239 111.194 0 80.792-65.494 146.286-146.285 146.286-80.792 0-146.286-65.494-146.286-146.286 0-44.836 20.178-84.953 51.94-111.788l-124.654-180.498v-293h439v292.571zM803.856 594.428c40.396 0 73.143-32.747 73.143-73.143s-32.747-73.143-73.143-73.143-73.143 32.747-73.143 73.143c0.001 40.396 32.748 73.143 73.143 73.143zM777.157 377.467c8.702-1.614 17.673-2.467 26.843-2.467 9.527 0 18.837 0.922 27.856 2.66l100.372-148.66h-255.311l100.24 148.467zM951 9h-293v146h293v-146z" />
<glyph unicode="&#xe905;" glyph-name="arrow-down" d="M146.285 667.428l365.736-438.852 365.695 438.852h-731.431z" />
<glyph unicode="&#xe906;" glyph-name="arrow-right" d="M292.574 813.718l438.853-365.737-438.853-365.694v731.431z" />
<glyph unicode="&#xe907;" glyph-name="askfor-leave" d="M805 814v-73h146v-732h-878v732h146v73h-219v-878h1024v878zM219 229h586v-74h-586v74zM219 448h586v-73h-586v73zM732 887h-440v-220h440v220zM659 740h-294v74h294v-74z" />
<glyph unicode="&#xe908;" glyph-name="assessment" d="M951 9v512h-73v-512h-147v366h-73v-366h-146v220h-73v-220h-146v146h-74v-146h-146v878h-73v-951h1024v73zM862.316 659.301l-45.433 51.826-215.809-211.035-88.217 67.147-252.793-185.112-40.635 65.017 293.428 220.285 87.532-65.016 172.531 162.54-48.762 48.761h154.414z" />
<glyph unicode="&#xe909;" glyph-name="attachment" d="M1024 264.5c0-20.158-16.342-36.5-36.5-36.5h-366c-20.158 0-36.5 16.342-36.5 36.5v0c0 20.158 16.342 36.5 36.5 36.5h366c20.16 0 36.5-16.342 36.5-36.5v0zM804.5 484c20.158 0 36.5-16.342 36.5-36.5v-366c0-20.158-16.342-36.5-36.5-36.5v0c-20.158 0-36.5 16.342-36.5 36.5v366c0 20.158 16.342 36.5 36.5 36.5v0zM653.232 377.768c12.267 12.357 12.247 32.315-0.077 44.638s-32.282 12.343-44.638 0.078l-0.392 0.389-237.852-237.852c-74.087-59.109-182.665-54.422-251.234 14.146s-73.267 177.154-14.158 251.246l346.45 355.546c46.562 30.073 109.507 24.758 150.256-15.991 40.74-40.742 46.057-103.685 15.98-150.247l-309.785-310.6c-1.632-2.559-3.539-4.993-5.77-7.226-16.526-16.525-43.416-16.527-59.943 0-16.528 16.526-16.53 43.419-0.003 59.946 2.234 2.234 4.669 4.14 7.227 5.771l243.932 245.971c0.976 0.767 1.926 1.582 2.826 2.481 12.352 12.35 12.352 32.374 0 44.722-12.349 12.35-32.373 12.35-44.725 0-0.361-0.363-0.677-0.753-1.020-1.129l-0.056 0.054-246.53-246.53c-2.325-1.959-4.602-4.009-6.794-6.197-41.417-41.418-41.417-108.81 0.001-150.227 41.416-41.417 108.809-41.417 150.225 0 2.191 2.19 4.241 4.468 6.199 6.795l310.010 310.378c54.58 72.085 49.064 175.478-16.634 241.178-65.706 65.704-169.101 71.222-241.188 16.642l-346.024-355.968c-83.885-99.19-79.098-248.275 14.382-341.756 92.533-92.532 239.545-98.141 338.717-16.872l0.249-0.281 240.631 240.633-0.262 0.262z" />
<glyph unicode="&#xe90a;" glyph-name="attendance" d="M438.857 813.715h146.312v-73.144h-146.312v73.144zM1024 813.714v0l-219.454 0.001v-73.144h146.312v-219.428h-877.715v219.428h146.312v73.144l-219.455-0.001v-877.715h1024.030l-0.030 877.715zM950.857 9.143h-877.714v438.856h877.714v-438.856zM366 703.5c0-20.158-16.342-36.5-36.5-36.5v0c-20.158 0-36.5 16.342-36.5 36.5v147c0 20.158 16.342 36.5 36.5 36.5v0c20.158 0 36.5-16.342 36.5-36.5v-147zM731 703.5c0-20.158-16.342-36.5-36.5-36.5v0c-20.158 0-36.5 16.342-36.5 36.5v147c0 20.158 16.342 36.5 36.5 36.5v0c20.158 0 36.5-16.342 36.5-36.5v-147zM438 265.5c0-20.197-18.356-36.5-41-36.5h-137c-22.644 0-41 16.303-41 36.5v0c0 20.197 18.356 36.5 41 36.5h137c22.643 0 41-16.303 41-36.5v0zM438 119.5c0-20.197-18.356-36.5-41-36.5h-137c-22.644 0-41 16.303-41 36.5v0c0 20.197 18.356 36.5 41 36.5h137c22.643 0 41-16.303 41-36.5v0zM804 265.5c0-20.197-18.357-36.5-41-36.5h-137c-22.645 0-41 16.303-41 36.5v0c0 20.197 18.355 36.5 41 36.5h137c22.643 0 41-16.303 41-36.5v0zM804 119.5c0-20.197-18.357-36.5-41-36.5h-137c-22.645 0-41 16.303-41 36.5v0c0 20.197 18.355 36.5 41 36.5h137c22.643 0 41-16.303 41-36.5v0z" />
<glyph unicode="&#xe90b;" glyph-name="attendance-filled-m" d="M329.5 668c20.158 0 36.5 16.342 36.5 36.5v146c0 20.158-16.342 36.5-36.5 36.5s-36.5-16.342-36.5-36.5v-146c0-20.158 16.342-36.5 36.5-36.5zM695.5 668c20.158 0 36.5 16.342 36.5 36.5v146c0 20.158-16.342 36.5-36.5 36.5s-36.5-16.342-36.5-36.5v-146c0-20.158 16.342-36.5 36.5-36.5zM439 814h147v-73h-147v73zM994 814h-188v-73h125c11.046 0 20-8.954 20-20v-200h-878v200c0 11.046 8.954 20 20 20h126v73h-189c-16.568 0-30-13.432-30-30v-818c0-16.568 13.432-30 30-30h964c16.568 0 30 13.432 30 30v818c0 16.568-13.43 30-30 30zM269.286 84.666c-27.614 0-50 22.388-50 50s22.386 50 50 50 50-22.387 50-50c0-27.612-22.387-50-50-50zM269.286 275.666c-27.614 0-50 22.388-50 50s22.386 50 50 50 50-22.387 50-50c0-27.612-22.387-50-50-50zM512.286 84.666c-27.614 0-50 22.388-50 50s22.386 50 50 50 50-22.387 50-50c-0.001-27.612-22.387-50-50-50zM512.286 275.666c-27.614 0-50 22.388-50 50s22.386 50 50 50 50-22.387 50-50c-0.001-27.612-22.387-50-50-50zM754.285 84.666c-27.613 0-50 22.388-50 50s22.387 50 50 50c27.614 0 50-22.387 50-50s-22.386-50-50-50zM754.285 275.666c-27.613 0-50 22.388-50 50s22.387 50 50 50c27.614 0 50-22.387 50-50s-22.386-50-50-50z" />
<glyph unicode="&#xe90c;" glyph-name="attendance-m" d="M319.286 325.666c0-27.614-22.386-50-50-50s-50 22.386-50 50c0 27.614 22.386 50 50 50s50-22.386 50-50zM562.285 325.666c0-27.614-22.386-50-50-50s-50 22.386-50 50c0 27.614 22.386 50 50 50s50-22.386 50-50zM804.285 325.666c0-27.614-22.386-50-50-50s-50 22.386-50 50c0 27.614 22.386 50 50 50s50-22.386 50-50zM319.286 134.666c0-27.614-22.386-50-50-50s-50 22.386-50 50c0 27.614 22.386 50 50 50s50-22.386 50-50zM562.285 134.666c0-27.614-22.386-50-50-50s-50 22.386-50 50c0 27.614 22.386 50 50 50s50-22.386 50-50zM804.285 134.666c0-27.614-22.386-50-50-50s-50 22.386-50 50c0 27.614 22.386 50 50 50s50-22.386 50-50zM366 704.5c0-20.158-16.342-36.5-36.5-36.5v0c-20.158 0-36.5 16.342-36.5 36.5v146c0 20.158 16.342 36.5 36.5 36.5v0c20.158 0 36.5-16.342 36.5-36.5v-146zM732 704.5c0-20.158-16.342-36.5-36.5-36.5v0c-20.158 0-36.5 16.342-36.5 36.5v146c0 20.158 16.342 36.5 36.5 36.5v0c20.158 0 36.5-16.342 36.5-36.5v-146zM439 814h147v-73h-147v73zM994 814h-188v-73h125c11.046 0 20-8.954 20-20v-200h-878v200c0 11.046 8.954 20 20 20h126v73h-189c-16.568 0-30-13.432-30-30v-818c0-16.568 13.432-30 30-30h964c16.568 0 30 13.432 30 30v818c0 16.568-13.43 30-30 30zM931 10h-838c-11.046 0-20 8.954-20 20v418h878v-418c0-11.046-8.954-20-20-20z" />
<glyph unicode="&#xe90d;" glyph-name="case" d="M365.714 447.998h512.027v-73.143h-512.027v73.143zM512 155.428h365.741v-73.143h-365.741v73.143zM658.286 740.571h219.455v-73.143h-219.455v73.143zM0 887v-951h1024v951h-1024zM73 814h878v-220h-878v220zM951 521v-219h-878v219h878zM73 9v220h878v-220h-878z" />
<glyph unicode="&#xe90e;" glyph-name="child-list-items" d="M146.286 740.569h731.455v-73.143h-731.455v73.143zM146.286 447.999h512.026v-73.143h-512.026v73.143zM146.286 155.428h292.598v-73.143h-292.598v73.143z" />
<glyph unicode="&#xe90f;" glyph-name="circle" d="M512 960c-282.768 0-512-229.231-512-512.002 0-282.768 229.232-511.998 512-511.998 282.771 0 512 229.23 512 511.998 0 282.771-229.229 512.002-512 512.002zM512 9c-242.451 0-439 196.547-439 438.998 0 242.454 196.549 439.002 439 439.002 242.455 0 439-196.548 439-439.001s-196.545-438.999-439-438.999z" />
<glyph unicode="&#xe910;" glyph-name="circle-add" d="M512 960c-282.768 0-512-229.231-512-512.002 0-282.768 229.232-511.998 512-511.998 282.771 0 512 229.23 512 511.998 0 282.771-229.229 512.002-512 512.002zM512 9c-242.451 0-439 196.547-439 438.998 0 242.454 196.549 439.002 439 439.002 242.455 0 439-196.548 439-439.001s-196.545-438.999-439-438.999zM549 191.5c0-20.158-16.342-36.5-36.5-36.5v0c-20.158 0-36.5 16.342-36.5 36.5v512c0 20.158 16.342 36.5 36.5 36.5v0c20.158 0 36.5-16.342 36.5-36.5v-512zM805 447.5c0-20.158-16.342-36.5-36.5-36.5h-512c-20.158 0-36.5 16.342-36.5 36.5v0c0 20.158 16.342 36.5 36.5 36.5h512c20.158 0 36.5-16.342 36.5-36.5v0z" />
<glyph unicode="&#xe911;" glyph-name="circle-close" d="M512 960c-282.768 0-512-229.231-512-512.002 0-282.768 229.232-511.998 512-511.998 282.771 0 512 229.23 512 511.998 0 282.771-229.229 512.002-512 512.002zM512 9c-242.451 0-439 196.547-439 438.998 0 242.454 196.549 439.002 439 439.002 242.455 0 439-196.548 439-439.001s-196.545-438.999-439-438.999zM729.356 282.263l-166.237 166.237 166.236 166.237c15.123 15.122 15.826 38.937 1.572 53.191s-38.067 13.55-53.19-1.572l-166.237-166.237-166.237 166.237c-15.123 15.122-38.937 15.826-53.19 1.572s-13.551-38.069 1.572-53.191l166.236-166.237-166.237-166.237c-15.122-15.122-15.826-38.938-1.572-53.191s38.069-13.55 53.191 1.572l166.237 166.238 166.237-166.238c15.122-15.122 38.938-15.826 53.191-1.572s13.551 38.069-1.572 53.191z" />
<glyph unicode="&#xe912;" glyph-name="circle-close-filled" d="M512 960c-282.768 0-512-229.231-512-512.002 0-282.768 229.232-511.998 512-511.998 282.771 0 512 229.23 512 511.998 0 282.771-229.229 512.002-512 512.002zM730.929 229.071c-14.254-14.254-38.069-13.55-53.191 1.572l-166.238 166.239-166.237-166.238c-15.122-15.122-38.938-15.826-53.191-1.572s-13.55 38.069 1.572 53.191l166.237 166.237-166.236 166.238c-15.123 15.122-15.826 38.937-1.572 53.191s38.067 13.55 53.19-1.572l166.237-166.238 166.237 166.237c15.123 15.122 38.937 15.826 53.19 1.572s13.551-38.069-1.572-53.191l-166.236-166.237 166.237-166.238c15.123-15.121 15.827-38.937 1.573-53.191z" />
<glyph unicode="&#xe913;" glyph-name="circle-direction-left" d="M118.857 585.143v0 0zM512 960c-282.768 0-512-229.232-512-512.001s229.232-511.999 512-511.999c282.771 0 512 229.23 512 511.999s-229.229 512.001-512 512.001zM512 9c-242.451 0-439 196.547-439 438.999 0 242.454 196.549 439 439 439 242.455 0 439-196.548 439-439.001 0-242.451-196.545-438.998-439-438.998zM395.002 450.142l257.387-257.387-51.619-51.619-309.006 309.006 309.713 309.712 51.619-51.619z" />
<glyph unicode="&#xe914;" glyph-name="circle-direction-right" d="M512 960c-282.768 0-512-229.231-512-512.002 0-282.768 229.232-511.998 512-511.998 282.771 0 512 229.23 512 511.998 0 282.771-229.229 512.002-512 512.002zM512 9c-242.451 0-439 196.547-439 438.998 0 242.454 196.549 439.002 439 439.002 242.455 0 439-196.548 439-439.001s-196.545-438.999-439-438.999zM627.857 450.142l-257.386-257.387 51.618-51.619 309.007 309.006-309.714 309.712-51.618-51.619z" />
<glyph unicode="&#xe915;" glyph-name="circle-minus" d="M512 960c-282.768 0-512-229.231-512-512.002 0-282.768 229.232-511.998 512-511.998 282.771 0 512 229.23 512 511.998 0 282.771-229.229 512.002-512 512.002zM512 9c-242.451 0-439 196.547-439 438.998 0 242.454 196.549 439.002 439 439.002 242.455 0 439-196.548 439-439.001s-196.545-438.999-439-438.999zM805 447.5c0-20.158-16.342-36.5-36.5-36.5h-512c-20.158 0-36.5 16.342-36.5 36.5v0c0 20.158 16.342 36.5 36.5 36.5h512c20.158 0 36.5-16.342 36.5-36.5v0z" />
<glyph unicode="&#xe916;" glyph-name="circle-right" d="M512 960c-282.768 0-512-229.231-512-512.002 0-282.768 229.232-511.998 512-511.998 282.771 0 512 229.23 512 511.998 0 282.771-229.229 512.002-512 512.002zM512 9c-242.451 0-439 196.547-439 438.998 0 242.454 196.549 439.002 439 439.002 242.455 0 439-196.548 439-439.001s-196.545-438.999-439-438.999zM804.55 638.883c-14.219 14.29-38.158 13.523-53.473-1.713l-313.6-312.028-152.828 152.828c-15.978 15.978-40.486 17.375-54.74 3.121s-12.857-38.762 3.121-54.738l174.374-174.375c15.017-15.017 37.567-17.15 52.059-5.519 3.438 1.853 6.69 4.235 9.624 7.154l333.479 331.809c15.314 15.236 16.202 39.172 1.984 53.461z" />
<glyph unicode="&#xe917;" glyph-name="circle-right-filled" d="M512 960c-282.768 0-512-229.231-512-512.002 0-282.768 229.232-511.998 512-511.998 282.771 0 512 229.23 512 511.998 0 282.771-229.229 512.002-512 512.002zM802.566 585.422l-333.479-331.809c-2.934-2.919-6.186-5.302-9.624-7.154-14.492-11.632-37.042-9.498-52.059 5.519l-174.374 174.375c-15.978 15.977-17.375 40.484-3.121 54.738s38.762 12.857 54.74-3.121l152.828-152.828 313.6 312.028c15.314 15.236 39.254 16.002 53.473 1.713s13.33-38.225-1.984-53.461z" />
<glyph unicode="&#xe918;" glyph-name="clock" d="M511.143 960.857c-282.768 0-512-229.231-512-512.002 0-282.767 229.232-511.998 512-511.998 282.771 0 512 229.23 512 511.998-0.003 282.77-229.229 512.002-512 512.002zM511.143 9.856c-242.451 0-439 196.548-439 438.999 0 242.454 196.549 439.001 439 439.001 242.455 0 439-196.548 439-439.001 0.001-242.451-196.545-438.999-439-438.999zM695.708 448c0 0-114.209 0-183.708 0v256.801c0 20.129-16.375 36.457-36.507 36.457-20.119 0-36.493-16.328-36.493-36.457v-329.801h256.708c20.129 0 36.456 16.375 36.456 36.508 0 20.118-16.327 36.492-36.456 36.492z" />
<glyph unicode="&#xe919;" glyph-name="close" d="M561.802 447.451l309.713 309.713c14.449 14.449 14.449 37.876 0 52.326-14.45 14.45-37.877 14.45-52.326 0l-309.713-309.714-309.713 309.713c-14.449 14.45-37.876 14.45-52.326 0s-14.449-37.876 0-52.326l309.713-309.713-309.713-309.712c-14.449-14.45-14.449-37.877 0-52.326s37.876-14.449 52.326 0l309.713 309.713 309.713-309.713c14.449-14.449 37.876-14.449 52.325 0s14.449 37.876 0 52.326l-309.712 309.713z" />
<glyph unicode="&#xe91a;" glyph-name="company" d="M146.26 667.428h146.312v-73.143h-146.312v73.143zM365.714 667.428h146.312v-73.143h-146.312v73.143zM146.286 447.999h146.312v-73.143h-146.312v73.143zM365.74 447.999h146.312v-73.143h-146.312v73.143zM146.234 228.571h146.312v-73.143h-146.312v73.143zM365.688 228.571h146.312v-73.143h-146.312v73.143zM658 521v366h-658v-951h1024v585h-366zM585 9h-512v805h512v-805zM951 9h-293v439h293v-439z" />
<glyph unicode="&#xe91b;" glyph-name="contacts" d="M-0.026 667.428h219.455v-73.143h-219.455v73.143zM-0.026 448h219.455v-73.143h-219.455v73.143zM-0.026 228.57h219.455v-73.143h-219.455v73.143zM73 887v-146h74v73h804v-805h-804v73h-74v-146h951v951zM725.684 334.143c47.662 33.005 78.889 88.065 78.889 150.429 0 100.989-81.868 182.857-182.856 182.857-100.99 0-182.858-81.868-182.858-182.857 0-62.342 31.205-117.386 78.84-150.395-76.887-33.422-135.746-101.577-152.113-179.177h71.681c23.468 79.526 97.030 137.571 184.161 137.571s160.693-58.045 184.162-137.571h72.125c-16.365 77.572-75.189 145.708-152.031 179.143zM621.716 606.357c67.391 0 122.023-54.632 122.023-122.024s-54.633-122.024-122.023-122.024c-67.392 0-122.024 54.633-122.024 122.024s54.632 122.024 122.024 122.024z" />
<glyph unicode="&#xe91c;" glyph-name="content" d="M73 814h805v-73h73v146l-951-0.143v-804.857h146v73h-73zM366 448h219v-73h-219v73zM366 155h512v-73h-512v73zM366 302h365v-73h-365v73zM219 667v-731h805v731h-805zM951 9h-658v585h658v-585z" />
<glyph unicode="&#xe91d;" glyph-name="contract-filled-m" d="M731.401 667.428h292.599v-73.143h-292.599v73.143zM804.544 447.999h219.456v-73.142h-219.456v73.142zM877.688 228.572h146.313v-73.143h-146.313v73.143zM0.103 9.852h-0.103c0 0 0.061-4.131 0.103 0zM878.377 57.598c-2.13 54.828-67.805 88.592-87.438 96.316-37.218 14.643-74.887 28.148-112.461 41.869-21.108 7.709-42.14 15.484-62.339 25.166-13.781 7.178-26.84 15.822-38.782 26.434-46.045 29.135-31.020 96.891-29.799 100.514 6.856 20.34 19.902 36.783 30.844 54.539 23.185 37.617 44.158 76.403 61.706 117.48 47.785 111.931 1.533 253.531-68.797 317.355-38.14 34.612-82.886 51.121-127.066 49.474-46.93 1.647-94.46-14.862-134.974-49.474-74.706-63.824-123.834-205.424-73.078-317.355 18.64-41.077 40.918-79.863 65.546-117.48 11.624-17.756 25.479-34.199 32.764-54.539 1.297-3.623 17.256-71.379-31.654-100.514-18.871-15.783-40.353-27.234-63.101-35.945-38.008-14.557-76.481-27.893-114.627-42.094-30.639-11.403-125.186-43.012-125.030-109.547 0.079-33.328 0.055-45.797 0.012-49.945l878.23 0.139c0-0.001 0.018 18.652 0.044 47.607zM862.465 9.852h-0.098c0.039-4.131 0.098 0 0.098 0z" />
<glyph unicode="&#xe91e;" glyph-name="contract-m" d="M731.401 667.428h292.599v-73.143h-292.599v73.143zM804.544 447.999h219.456v-73.142h-219.456v73.142zM877.688 228.572h146.313v-73.143h-146.313v73.143zM0.103 9.852h-0.103c0 0 0.027-1.836 0.058-1.836 0.015 0 0.031 0.459 0.045 1.836v0zM450.259 814.857c25.26 0 50.387-10.686 72.666-30.904 11.688-10.606 23.012-25.376 32.75-42.713 10.537-18.76 19.005-40.238 24.488-62.113 11.84-47.23 9.611-93.732-6.267-130.926-14.847-34.752-33.422-70.076-56.792-107.993-2.202-3.573-4.735-7.42-7.417-11.493-9.919-15.061-22.264-33.806-30.363-57.832-3.419-10.148-9.139-37.833-6.317-69.974 4.152-47.287 25.568-86.385 60.528-110.828 14.7-12.496 31.276-23.58 49.344-32.99l1.061-0.552 1.078-0.518c22.356-10.715 44.367-18.961 68.762-27.87 6.066-2.215 12.135-4.425 18.203-6.634 30.592-11.139 62.224-22.656 92.595-34.604 1.802-0.709 5.542-2.4 10.183-4.939l-672.336-0.105c15.414 8.089 31.73 14.084 43.031 18.235 1.719 0.632 3.316 1.219 4.783 1.765 15.496 5.769 31.47 11.545 46.917 17.131 22.348 8.081 45.458 16.437 68.337 25.199 30.698 11.756 56.764 26.387 79.509 44.646 36.996 24.269 59.712 63.678 64.188 111.676 3.065 32.856-3.175 61.23-6.906 71.652-8.695 24.278-21.86 43.098-32.438 58.22-2.846 4.069-5.535 7.912-7.871 11.48-24.787 37.86-44.484 73.12-60.211 107.778-16.541 36.476-18.852 82.096-6.507 128.457 11.33 42.55 34.051 81.586 60.779 104.421 24.756 21.15 53.048 32.329 81.817 32.329 1.283 0 2.583-0.022 3.863-0.067l2.603-0.091 2.603 0.097c1.11 0.039 2.232 0.060 3.337 0.060zM450.259 886.857c-2.008 0-4.009-0.037-6.015-0.112-2.128 0.075-4.259 0.112-6.389 0.112-44.839 0-89.909-16.544-128.585-49.586-74.706-63.824-123.834-205.424-73.078-317.355 18.64-41.077 40.918-79.863 65.546-117.48 11.624-17.756 25.479-34.199 32.764-54.539 1.297-3.623 17.256-71.379-31.654-100.514-18.871-15.783-40.353-27.234-63.101-35.945-38.008-14.557-76.481-27.893-114.627-42.094-30.638-11.403-125.185-43.012-125.029-109.547 0.079-33.328 0.055-45.797 0.012-49.945l878.23 0.139c0 0 0.018 18.652 0.044 47.607-2.13 54.828-67.805 88.592-87.438 96.316-37.218 14.643-74.887 28.148-112.461 41.869-21.108 7.709-42.14 15.484-62.339 25.166-13.781 7.178-26.84 15.822-38.782 26.434-46.045 29.135-31.020 96.891-29.799 100.514 6.856 20.34 19.902 36.783 30.844 54.539 23.185 37.617 44.158 76.403 61.706 117.48 47.785 111.931 1.533 253.531-68.797 317.355-36.408 33.040-78.843 49.586-121.052 49.586v0zM862.465 9.852h-0.098c0.013-1.377 0.028-1.836 0.043-1.836 0.028 0 0.055 1.836 0.055 1.836v0z" />
<glyph unicode="&#xe91f;" glyph-name="dealwith-approval" d="M146 155h732v-73h-732v73zM654.063 594.5c0 80.792-65.494 146.25-146.286 146.25s-146.286-65.512-146.286-146.303c0-43.451 18.951-82.336 49.030-109.129l-123.862-183.318h-67.659v-73h586v73h-79.311l-122.669 181.543c31.246 26.829 51.043 66.544 51.043 110.957zM507.633 667.571c40.396 0 73.142-32.747 73.142-73.143s-32.746-73.143-73.142-73.143c-40.396 0-73.143 32.747-73.143 73.143s32.748 73.143 73.143 73.143zM637.437 302h-262.526l101.194 149.735c10.2-2.251 20.795-3.52 31.672-3.52 9.883 0 19.535 1.093 28.868 2.961l100.792-149.176zM731.429 887h-731.429v-951h1024v658.286l-292.571 292.714zM951 9h-878v805h632.565l245.435-249.615v-555.385z" />
<glyph unicode="&#xe920;" glyph-name="delete" d="M365.714 594.286h73.143v-509.942h-73.143v509.942zM585.144 594.286h73.143v-509.942h-73.143v509.942zM878 667h-73v-658h-586v658h-73v-731h732zM73.143 813.714h877.742v-73.143h-877.742v73.143zM365.714 960h292.598v-73.143h-292.598v73.143z" />
<glyph unicode="&#xe921;" glyph-name="department" d="M731 521v366l-731-0.143v-950.857h1024v585h-293zM658 9h-585v805h585v-805zM731 9v439h220v-439h-220zM438.831 667.428h146.314v-73.143h-146.314v73.143zM146.286 667.428h146.313v-73.143h-146.313v73.143zM438.831 448h146.314v-73.142h-146.314v73.142zM146.286 448h146.313v-73.142h-146.313v73.142zM438.831 228.57h146.314v-73.143h-146.314v73.143zM146.286 228.57h146.313v-73.143h-146.313v73.143z" />
<glyph unicode="&#xe922;" glyph-name="department-filled" d="M218.999 119.57c0-60.593-49.121-109.714-109.714-109.714s-109.714 49.121-109.714 109.714c0 60.593 49.121 109.714 109.714 109.714s109.714-49.121 109.714-109.714zM620.999 119.57c0-60.593-49.121-109.714-109.714-109.714s-109.714 49.121-109.714 109.714c0 60.593 49.121 109.714 109.714 109.714s109.714-49.121 109.714-109.714zM620.999 777.57c0-60.593-49.121-109.714-109.714-109.714s-109.714 49.121-109.714 109.714c0 60.593 49.121 109.714 109.714 109.714s109.714-49.121 109.714-109.714zM1023.999 119.57c0-60.593-49.121-109.714-109.714-109.714s-109.714 49.121-109.714 109.714c0 60.593 49.121 109.714 109.714 109.714s109.714-49.121 109.714-109.714zM549 521v73h-74v-73h-402v-219h73v146h329v-146h74v146h329v-146h73v219z" />
<glyph unicode="&#xe923;" glyph-name="department-m" d="M109.285 169.284c27.413 0 49.714-22.302 49.714-49.714s-22.301-49.714-49.714-49.714-49.714 22.302-49.714 49.714 22.302 49.714 49.714 49.714zM109.285 229.284c-60.593 0-109.714-49.121-109.714-109.714s49.121-109.714 109.714-109.714 109.714 49.12 109.714 109.714c0 60.593-49.121 109.714-109.714 109.714v0zM511.285 169.284c27.412 0 49.714-22.302 49.714-49.714s-22.302-49.714-49.714-49.714-49.714 22.302-49.714 49.714 22.302 49.714 49.714 49.714zM511.285 229.284c-60.593 0-109.714-49.121-109.714-109.714s49.121-109.714 109.714-109.714c60.594 0 109.714 49.12 109.714 109.714s-49.12 109.714-109.714 109.714v0zM511.285 827.284c27.412 0 49.714-22.301 49.714-49.714s-22.302-49.714-49.714-49.714-49.714 22.301-49.714 49.714 22.302 49.714 49.714 49.714zM511.285 887.284c-60.594 0-109.714-49.121-109.714-109.714s49.12-109.714 109.714-109.714 109.714 49.12 109.714 109.714c0 60.593-49.12 109.714-109.714 109.714v0zM914.285 169.284c27.412 0 49.714-22.302 49.714-49.714s-22.302-49.714-49.714-49.714-49.714 22.302-49.714 49.714 22.302 49.714 49.714 49.714zM914.285 229.284c-60.594 0-109.714-49.121-109.714-109.714s49.12-109.714 109.714-109.714 109.714 49.12 109.714 109.714c0.001 60.593-49.12 109.714-109.714 109.714v0zM549 521v73h-74v-73h-402v-219h73v146h329v-146h74v146h329v-146h73v219z" />
<glyph unicode="&#xe924;" glyph-name="direction-down" d="M512.164 258.726l413.657 413.657 51.619-51.618-465.276-465.277-465.276 465.277 51.618 51.618z" />
<glyph unicode="&#xe925;" glyph-name="direction-left" d="M322.284 447.448l413.657 413.657-51.618 51.62-465.276-465.277 465.276-465.276 51.618 51.618z" />
<glyph unicode="&#xe926;" glyph-name="direction-right" d="M701.86 448.551l-413.657-413.657 51.619-51.62 465.276 465.277-465.276 465.276-51.619-51.618z" />
<glyph unicode="&#xe927;" glyph-name="direction-up" d="M512.164 643.146l413.657-413.658 51.619 51.618-465.276 465.277-465.276-465.277 51.618-51.618z" />
<glyph unicode="&#xe928;" glyph-name="document" d="M768.572 960h-695.572v-1024h951v769.428l-255.428 254.572zM731 886.147l219.14-218.147h-219.14v218.147zM951 9h-805v878h512v-292h293v-586zM293 229h512v-74h-512v74zM293 448h365v-73h-365v73z" />
<glyph unicode="&#xe929;" glyph-name="draft-box" d="M1024 887v0 0h-1024v-951h1024v951zM951 814v-802h-878v802h878zM146 448h439v-73h-439v73zM146 667h659v-73h-659v73z" />
<glyph unicode="&#xe92a;" glyph-name="edit" d="M118.857 585.143v0 0zM512 959.404c-282.768 0-512-229.232-512-512.002 0-282.767 229.231-511.998 512-511.998s512 229.23 512 511.998c0 282.77-229.229 512.002-512 512.002zM268.568 204.024l23.919 138.294 114.076-114.076-137.995-24.218zM422.328 243.963l-113.838 113.839 260.206 260.204 113.838-113.84-260.206-260.203zM748.057 569.712l-48.047-48.046-113.822 113.824 48.023 48.047c16.305 16.306 32.61 0 32.61 0l81.234-81.212c0.002-0.002 16.308-16.307 0.002-32.613z" />
<glyph unicode="&#xe92b;" glyph-name="edit-pen" d="M1008.49 669.323l-274.562 275.142c-20.683 20.713-54.212 20.713-74.896 0l-99.85-100.057c-62.466-62.595-366.417-366.641-403.95-404.241-16.647-16.69-49.687-32.774-69.35-120.571-27.95-124.858-85.882-383.596-85.882-383.596s259.352 57.204 384.323 84.767c87.691 19.342 101.123 49.937 114.135 62.964 39.658 39.739 350.875 351.066 420.831 421.164l89.196 89.398c20.685 20.715 20.685 54.306 0.005 75.030zM561.699 739.307l241.243-244.807-332.598-336.624-242.378 245.962 333.733 335.469zM91.429 27.428l82.286 321.876 7.256 7.294 242.539-246.122-9.786-9.904-322.295-73.144zM849.776 541.9l-241.082 244.646 90.696 91.168 242.324-242.763-91.938-93.051z" />
<glyph unicode="&#xe92c;" glyph-name="email" d="M0 887v-876h1024v876h-1024zM73 814h878v-146.224c-86-57.479-374.231-251.32-384.071-256.348-43.191-25.429-69.965-30.763-118.965 0-7.604 3.88-281.964 188.867-374.964 251.655v150.917zM457.071 318.832c55.857-37.499 109.823 0 109.823 0l384.106 261.687v-498.519h-878v494.501c123-82.825 344.827-231.978 384.071-257.669z" />
<glyph unicode="&#xe92d;" glyph-name="email-m" d="M974 887h-924c-27.614 0-50-22.386-50-50v-778c0-27.614 22.386-50 50-50h924c27.614 0 50 22.386 50 50v778c0 27.614-22.39 50-50 50zM951 106.464c0-13.98-11.803-25.464-26.005-25.464h-826.281c-14.201 0-25.714 11.484-25.714 25.464v460.393c0 0 344.826-223.333 384.070-249.025 55.857-37.499 109.823 0 109.823 0l384.107 258.168v-469.536zM951 666.776c-86-57.479-374.231-251.32-384.071-256.348-43.191-25.429-69.965-30.763-118.965 0-7.604 3.88-281.964 188.867-374.964 251.654v126.318c0 13.981 11.513 25.6 25.714 25.6h826.281c14.202 0 26.005-11.619 26.005-25.6v-121.624z" />
<glyph unicode="&#xe92e;" glyph-name="export" d="M118.857 585.143v0 0zM512 960.857c-282.768 0-512-229.231-512-512.003 0-282.767 229.232-511.997 512-511.997 282.772 0 512 229.229 512 511.997 0 282.771-229.229 512.003-512 512.003zM512 9.856c-242.451 0-439 196.548-439 438.999 0 242.454 196.549 439 439 439 242.456 0 439-196.548 439-439 0.002-242.451-196.545-438.999-439-438.999zM805 448h-74v-146h-438v146h-74v-219h586zM658 594l-146.143 146.286-146.143-146.286h109.286v-219h74v219z" />
<glyph unicode="&#xe92f;" glyph-name="fax" d="M974.478 741h-169.478v168.55c0 27.863-25.239 50.45-53.562 50.45h-484.721c-28.322 0-48.717-22.587-48.717-50.45v-168.55h-166.766c-27.863 0-51.234-16.756-51.234-45.079v-484.727c0-28.322 23.371-57.194 51.234-57.194h166.766v-167.693c0-27.863 20.395-50.307 48.717-50.307h484.722c28.322 0 53.562 22.443 53.562 50.307v167.693h169.478c27.862 0 49.522 28.872 49.522 57.194v484.727c-0.001 28.323-21.661 45.079-49.523 45.079zM292 857c0 16.568 13.432 30 30 30h379c16.568 0 30-13.432 30-30v-116h-439v116zM731 39c0-16.568-13.432-30-30-30h-379c-16.568 0-30 13.432-30 30v306c0 16.568 13.432 30 30 30h379c16.568 0 30-13.432 30-30v-306zM951 258c0-16.568-13.432-30-30-30h-116v169.693c0 27.864-25.239 50.307-53.562 50.307h-484.721c-28.322 0-48.717-22.443-48.717-50.307v-169.693h-115c-16.568 0-30 13.432-30 30v379c0 16.568 13.432 30 30 30h818c16.568 0 30-13.432 30-30v-379z" />
<glyph unicode="&#xe930;" glyph-name="forward" d="M1015.81 569.178l-283.353 309.355c-11.238 11.098-29.45 11.098-40.685 0-6.47-6.401-8.764-15.010-7.786-23.359v-166.58c-235.276 0-426.003-189.921-426.003-424.166 0-60.088 12.712-117.162 35.34-168.959 33.61 176.68 202.956 310.875 390.171 310.875 0-9.639 0.492-166.246 0.492-166.246-0.978-8.344 1.316-16.973 7.786-23.338 0.073-0.098 0.168-0.109 0.243-0.186 5.164-5.324 12.344-8.701 20.37-8.701 8.833 0 16.415 4.264 21.625 10.555l281.804 307.669c5.994 5.925 8.547 13.782 8.145 21.551 0.401 7.748-2.149 15.605-8.149 21.53v0zM738.003 310.467v151.89c0 0-67.091 0.49-85.661 0.49-118.311 0-279.145-91.898-340.339-170.137 0.881 106.277 140.013 333.401 340.341 339.605 14.759 0.459 85.661-0.276 85.661-0.276v152.751l217.229-237.16-217.231-237.163zM878 302v-293h-805v732h439v73h-512v-878h951v366z" />
<glyph unicode="&#xe931;" glyph-name="group" d="M612.144 310.714c170.254 0 309.43-132.965 319.405-300.714h92.451c-10.002 163-100.635 298.646-248.992 357.775 74.092 51.307 122.633 137.563 122.633 234.505 0 156.989-127.262 284.582-284.25 284.582-156.99 0-284.254-127.108-284.254-284.094 0-96.91 48.51-183.857 122.559-235.174-215.297-84.43-256.045-284.594-256.616-357.594h97.658c9.975 167.749 149.152 300.714 319.406 300.714zM411.857 603.428c0 111.088 90.055 201.143 201.143 201.143s201.144-90.055 201.144-201.143-90.055-201.143-201.144-201.143c-111.088 0-201.143 90.055-201.143 201.143zM293 730.897v81.908c-119-2.163-219.974-99.365-219.974-218.974 0-85.712 51.854-159.911 125.033-195.882-164.81-87.14-197.563-253.027-198.059-315.949h91.558c7.341 123.238 89.324 226.702 201.442 265.508v110.255c-80 2.147-137.073 55.064-137.073 136.067s57.073 134.92 137.073 137.067z" />
<glyph unicode="&#xe932;" glyph-name="home" d="M512.204 886.857l-511.796-515.138 51.576-51.719 94.016 94.158v-478.158h732v478.437l94.315-94.437 51.631 51.719-511.742 515.138zM585 9h-146v293h146v-293zM658 9v366h-292v-366h-147v478.301l293.204 292.775 292.796-292.514v-478.562h-147z" />
<glyph unicode="&#xe933;" glyph-name="list-items" d="M146.286 740.569h731.455v-73.143h-731.455v73.143zM146.286 447.999h731.455v-73.143h-731.455v73.143zM146.286 155.428h731.456v-73.143h-731.456v73.143z" />
<glyph unicode="&#xe934;" glyph-name="mail-deleted" d="M951 495.064v318.936h-951v-735h541.27c51.142-44 117.557-70.119 190.159-70.119 161.583 0 292.643 131.049 292.643 292.631-0.002 74.191-28.072 141.979-73.072 193.552zM73 155v586h805v-186.007c-43 24.895-93.137 39.15-146.429 39.15-161.583 0-292.643-131.203-292.643-292.786 0-53.232 14.151-103.357 38.995-146.357h-404.923zM731.143 68.143c-128.761 0-233.143 104.381-233.143 233.142s104.381 233.143 233.142 233.143c128.763 0 233.144-104.381 233.144-233.143 0-128.761-104.381-233.142-233.143-233.142zM824.91 414.982l-94.453-94.454-94.453 94.452c-7.45 7.451-19.533 7.451-26.985 0s-7.451-19.534 0-26.985l94.452-94.453-94.453-94.452c-7.451-7.451-7.451-19.534 0-26.985s19.535-7.452 26.986 0l94.453 94.452 94.455-94.455c7.445-7.445 19.534-7.452 26.987 0s7.445 19.542 0 26.987l-94.455 94.455 94.453 94.453c7.451 7.451 7.451 19.535 0 26.986s-19.535 7.452-26.987-0.001v0 0z" />
<glyph unicode="&#xe935;" glyph-name="mail-filled" d="M502.757 469.439c6.363 0 12.728 0 12.728 0l508.516 330.928v12.729h-1024.001v-12.729l502.757-330.928zM534.576 424.891c-6.365-6.362-19.091-6.362-25.456-6.362-6.363 0-12.729 0-19.091 6.362l-490.029 318.2v-617.31c0-25.453 19.092-50.91 50.912-50.91h922.779c25.456 0 50.913 19.092 50.913 50.91v617.31l-490.028-318.2z" />
<glyph unicode="&#xe936;" glyph-name="mail-read" d="M515 886.12l-512-328.406v-621.714h1024v621.714l-512 328.406zM512 804.571l411.428-265.143-411.428-237.714-411.429 237.714 411.429 265.143zM951 12h-878v462.874l439-246.303 439 249.558v-466.129z" />
<glyph unicode="&#xe937;" glyph-name="mail-sent" d="M951 495.064v318.936h-951v-735h541.27c51.142-44 117.557-70.119 190.159-70.119 161.583 0 292.643 131.049 292.643 292.631-0.002 74.191-28.072 141.979-73.072 193.552zM73 155v586h805v-186.007c-43 24.895-93.137 39.15-146.429 39.15-161.583 0-292.643-131.203-292.643-292.786 0-53.232 14.151-103.357 38.995-146.357h-404.923zM731.143 68.143c-128.761 0-233.143 104.381-233.143 233.142s104.381 233.143 233.142 233.143c128.763 0 233.144-104.381 233.144-233.143 0-128.761-104.381-233.142-233.143-233.142zM688.694 174.232c-4.311 0-8.608 1.598-11.885 4.803l-98.804 96.421c-6.564 6.411-6.564 16.793 0 23.203 6.564 6.412 17.203 6.412 23.768 0l86.921-84.818 169.472 165.351c6.564 6.412 17.204 6.412 23.769 0 6.563-6.399 6.563-16.779 0-23.191l-181.357-176.966c-3.289-3.205-7.587-4.803-11.884-4.803v0 0z" />
<glyph unicode="&#xe938;" glyph-name="mail-setting" d="M729.042 391.771c-59.136-0.178-108.017-48.719-108.021-107.276-0.004-58.404 48.718-106.943 107.369-106.967 60.431-0.026 108.577 47.273 108.588 106.678 0.013 59.568-48.327 107.74-107.936 107.565zM729.324 229.621c-30.436 0.015-55.566 24.874-55.541 54.942 0.025 30.231 24.868 54.592 55.67 54.592 30.288 0 55.044-24.438 55.094-54.381 0.049-30.289-24.861-55.17-55.223-55.153zM1018.28 340.246c-4.939 24.293-14.833 33.443-39.237 34.645-43.49 2.146-75.579 47.247-55.852 88.979 2.253 4.764 2.652 10.407 3.485 13.882-1.157 17.861-7.362 30.797-21.73 38.79-8.969 4.99-17.958 9.943-26.95 14.891 0 59.89 0 282.568 0 282.568h-877.996v-732h534.788c1.923-12.581 9.919-23.96 22.292-30.855 20.709-11.545 41.472-22.991 62.235-34.437 20.69-11.404 40.78-7.852 58.29 8.103 10.581 9.641 22.725 17.742 34.855 25.451 10.457 6.643 22.419 6.904 32.816 0.087 12.95-8.486 25.646-17.645 37.188-27.929 15.735-14.020 36.68-17.604 55.083-7.534 20.8 11.387 41.593 22.783 62.412 34.129 24.7 13.46 31.443 32.621 22.226 59.094-3.104 8.916-5.362 19.169-4.217 28.337 4.302 34.447 30.71 56.429 65.521 57.261 6.18 0.149 12.962 2.346 18.274 5.563 9.368 5.669 13.507 15.475 15.795 25.902 8.392 38.301 8.532 76.692 0.722 115.073zM73 741h732v-183.611c-8.055-2.042-15.766-6.305-22.791-12.596-10-8.953-21.46-16.455-32.923-23.546-10.686-6.608-22.728-7.163-33.526-0.436-12.191 7.595-24.32 15.66-35.059 25.13-16.27 14.345-37.339 18.017-56.339 7.733-22.041-11.935-44.067-23.894-66.070-35.9-21.153-11.545-28.651-32.73-20.194-55.388 2.5-6.696 4.834-13.827 5.225-20.873 1.546-27.935-14.82-52.339-39.778-61.861-15.126 10.215-44.336 29.868-53.845 35.776-7.625 3.85-280.7 186.080-376.7 250.208v75.364zM73 155v424.059c112.268-74.637 302.392-201.287 368.524-244.819-6.532-36.181-5.94-72.428 1.617-108.635 4.199-20.114 16.994-32.213 34.497-32.094 27.739 0.188 50.749-16.105 60.664-38.511h-465.302zM968.729 250.262c-0.645-4.037-1.86-5.76-6.047-6.427-61.104-9.752-103.35-64.414-97.182-125.821 0.671-6.689 2.263-13.396 4.333-19.803 1.365-4.229 0.339-5.939-3.301-7.871-15.159-8.037-30.27-16.185-45.148-24.722-3.947-2.266-5.957-1.427-9.249 1.154-11.7 9.177-23.192 18.856-35.887 26.478-31.411 18.863-63.641 18.602-94.994-0.19-12.521-7.503-23.675-17.268-35.628-25.751-1.757-1.247-5.117-2.261-6.694-1.422-16.337 8.674-32.461 17.75-49.402 27.135 8.792 25.054 9.357 49.775 0.298 74.17-15.882 42.761-46.673 68.117-91.377 76.868-2.1 0.411-5.214 2.391-5.543 4.088-4.862 25.093-4.808 50.192 0.539 75.13 74.513 10.337 120.382 83.599 96.56 152.11 17.901 9.725 35.864 19.581 53.993 29.125 1.219 0.642 3.984-0.647 5.51-1.756 10.044-7.29 19.515-15.453 29.969-22.079 35.458-22.478 71.173-21.857 106.345 0.772 9.469 6.090 18.295 13.219 27.164 20.195 1.494 1.175 2.769 1.95 4.119 2.179 3.922-1.782 8.534-3.88 13.441-6.118 12.034-6.77 24.168-13.369 36.331-19.904 3.355-1.801 4.171-3.361 3.031-7.34-19.319-67.506 22.467-133.575 92.396-146.061 4.421-0.79 5.763-2.202 6.453-6.605 3.538-22.548 3.569-44.995-0.030-67.534z" />
<glyph unicode="&#xe939;" glyph-name="minus" d="M73 448h805v-73h-805v73z" />
<glyph unicode="&#xe93a;" glyph-name="mission" d="M365.715 447.996h512.028v-73.141h-512.028v73.141zM365.74 155.428h512.027v-73.143h-512.027v73.143zM365.715 740.569h512.026v-73.143h-512.026v73.143zM146.26 740.569h73.168v-73.143h-73.168v73.143zM146.235 447.998h73.168v-73.141h-73.168v73.141zM146.26 155.428h73.168v-73.143h-73.168v73.143z" />
<glyph unicode="&#xe93b;" glyph-name="mission-manage" d="M0 447.997h512.025v-73.14h-512.025v73.14zM0.025 155.428h438.884v-73.143h-438.884v73.143zM0 740.569h585.171v-73.143h-585.171v73.143zM1022.95 284.54c-2.012 11.161-12.77 22.523-23.93 25.039l-8.344 1.907c-19.607 5.931-37 18.901-48.059 38.005-11.061 19.202-13.674 41.019-8.85 61.028v0l2.615 7.843c3.318 10.858-1.006 25.839-9.754 33.28 0 0-7.842 6.636-29.961 19.404-22.119 12.667-31.67 16.188-31.67 16.188-10.758 3.919-25.838 0.2-33.682-8.145l-5.832-6.234c-14.879-14.074-34.887-22.622-57.008-22.622-22.119 0-42.324 8.646-57.207 22.824l-5.631 6.031c-7.742 8.344-22.924 12.063-33.682 8.145 0 0-9.65-3.521-31.771-16.188-22.119-12.87-29.859-19.506-29.859-19.506-8.748-7.34-13.072-22.221-9.752-33.179l2.412-7.944c4.727-20.007 2.211-41.725-8.848-60.927-11.059-19.205-28.654-32.272-48.359-38.105l-8.045-1.807c-11.063-2.516-21.918-13.776-23.93-25.039 0 0-1.808-10.053-1.808-35.59s1.808-35.593 1.808-35.593c2.012-11.26 12.77-22.52 23.93-25.033l7.842-1.81c19.707-5.832 37.402-18.901 48.463-38.204 11.059-19.207 13.674-41.024 8.848-61.034v0l-2.313-7.739c-3.32-10.86 1.004-25.838 9.752-33.279 0 0 7.842-6.636 29.961-19.404 22.117-12.769 31.67-16.188 31.67-16.188 10.758-3.921 25.84-0.203 33.682 8.144l5.529 5.933c14.984 14.176 35.088 22.822 57.309 22.822 22.219 0 42.43-8.748 57.311-22.923v0l5.529-5.934c7.742-8.344 22.924-12.064 33.682-8.144 0 0 9.652 3.521 31.771 16.189 22.117 12.767 29.859 19.402 29.859 19.402 8.748 7.344 13.072 22.321 9.754 33.279l-2.414 8.044c-4.725 19.908-2.211 41.624 8.848 60.728 11.061 19.203 28.756 32.375 48.461 38.206v0l7.844 1.81c11.059 2.514 21.918 13.776 23.926 25.037 0 0 1.813 10.052 1.813 35.589-0.1 25.641-1.91 35.694-1.91 35.694v0zM768.48 146.701c-56.402 0-102.25 45.743-102.25 102.249 0 56.402 45.746 102.15 102.25 102.15 56.404 0 102.252-45.748 102.252-102.252-0.101-56.404-45.847-102.147-102.252-102.147v0z" />
<glyph unicode="&#xe93c;" glyph-name="mission-regular" d="M512 960c-282.768 0-512-229.231-512-512.002 0-282.768 229.232-511.998 512-511.998 282.771 0 512 229.23 512 511.998 0 282.771-229.229 512.002-512 512.002zM512 9c-242.451 0-439 196.547-439 438.998 0 242.454 196.549 439.002 439 439.002 242.455 0 439-196.548 439-439.001s-196.545-438.999-439-438.999zM292.545 448.143h438.883v-73.143h-438.883v73.143zM292.545 228.715h438.883v-73.143h-438.883v73.143zM292.546 667.571h438.882v-73.143h-438.882v73.143z" />
<glyph unicode="&#xe93d;" glyph-name="mobilephone" d="M438.831 155.428h146.312v-73.143h-146.312v73.143zM826.004 960h-628.722c-28.322 0-51.282-22.587-51.282-50.45v-923.243c0-27.863 22.96-50.307 51.282-50.307h628.722c28.322 0 50.996 22.443 50.996 50.307v923.243c0 27.863-22.674 50.45-50.996 50.45zM804 302h-585v365h585v-365zM258.997 887h505.292c22.090 0 39.711-23.443 39.711-52.361v-93.639h-585v93.639c0 28.918 17.907 52.361 39.997 52.361zM764.289 9h-505.292c-22.090 0-39.997 23.52-39.997 52.437v167.563h585v-167.563c0-28.917-17.621-52.437-39.711-52.437z" />
<glyph unicode="&#xe93e;" glyph-name="my-approval" d="M0 887v-951h1024v951h-1024zM951 9h-878v805h878v-805zM146 448h585v-73h-585v73zM146 229h659v-74h-659v74zM146 667h367v-73h-367v73z" />
<glyph unicode="&#xe93f;" glyph-name="next-one" d="M512-47.55c0 0-32.666-37-73 0-45.857 45.143-292.715 282.629-292.715 282.629l51.721 51.721 240.994-240.998v840.198h73v-840.057l240.854 240.852 51.721-51.721-292.575-282.624z" />
<glyph unicode="&#xe940;" glyph-name="person" d="M55.097-64h92.258c14.371 188.828 172.136 337.571 364.645 337.571s350.275-148.743 364.646-337.571h85.093c-13.691 174.006-112.286 318.915-271.966 382.555 81.117 56.172 134.262 150.536 134.262 256.67 0 171.875-139.328 311.53-311.204 311.53s-311.207-139.179-311.207-311.050c0-106.099 53.11-201.156 134.18-257.338-227.377-89.169-276.926-296.039-280.707-382.367zM281.714 577.714c0 127.025 102.976 230 230 230 127.023 0 230-102.975 230-230s-102.977-230-230-230c-127.025 0-230 102.974-230 230z" />
<glyph unicode="&#xe941;" glyph-name="person-filled-m" d="M73.246 9.852h-0.103c0 0 0.061-4.131 0.103 0zM951.52 57.598c-2.129 54.828-67.805 88.592-87.438 96.316-37.219 14.643-74.887 28.148-112.461 41.869-21.109 7.709-42.141 15.484-62.34 25.166-13.781 7.178-26.84 15.822-38.781 26.434-46.045 29.135-31.020 96.891-29.799 100.514 6.855 20.34 19.902 36.783 30.844 54.539 23.184 37.617 44.158 76.403 61.705 117.48 47.785 111.931 1.533 253.531-68.797 317.355-38.139 34.612-82.887 51.121-127.066 49.474-46.93 1.647-94.46-14.862-134.974-49.474-74.706-63.824-123.834-205.424-73.078-317.355 18.64-41.077 40.918-79.863 65.546-117.48 11.624-17.756 25.479-34.199 32.764-54.539 1.297-3.623 17.256-71.379-31.654-100.514-18.871-15.783-40.353-27.234-63.101-35.945-38.008-14.557-76.481-27.893-114.627-42.094-30.637-11.402-125.184-43.012-125.028-109.547 0.079-33.328 0.056-45.797 0.012-49.945l878.23 0.139c0-0.001 0.017 18.652 0.043 47.607zM935.607 9.852h-0.098c0.040-4.131 0.098 0 0.098 0z" />
<glyph unicode="&#xe942;" glyph-name="person-m" d="M73.246 9.852h-0.103c0 0 0.027-1.836 0.058-1.836 0.015 0 0.031 0.459 0.045 1.836v0zM523.401 814.857c25.261 0 50.388-10.686 72.666-30.904 11.688-10.606 23.013-25.376 32.75-42.714 10.537-18.76 19.005-40.238 24.488-62.113 11.839-47.23 9.611-93.732-6.268-130.927-14.842-34.745-33.417-70.067-56.79-107.991-2.201-3.573-4.734-7.42-7.417-11.493-9.919-15.062-22.265-33.807-30.362-57.832-3.419-10.148-9.139-37.833-6.317-69.974 4.152-47.287 25.567-86.385 60.527-110.827 14.699-12.496 31.275-23.58 49.344-32.991l1.061-0.552 1.079-0.518c22.36-10.717 44.37-18.962 68.762-27.87 6.065-2.215 12.132-4.423 18.199-6.633 30.592-11.139 62.226-22.656 92.597-34.604 1.803-0.709 5.543-2.401 10.184-4.94l-672.336-0.105c15.414 8.089 31.73 14.083 43.031 18.235 1.719 0.632 3.317 1.219 4.783 1.765 15.496 5.769 31.468 11.544 46.915 17.13 22.35 8.081 45.46 16.438 68.341 25.2 30.698 11.755 56.764 26.388 79.509 44.647 36.996 24.268 59.711 63.677 64.188 111.675 3.064 32.854-3.174 61.226-6.906 71.652-8.695 24.278-21.86 43.098-32.438 58.22-2.846 4.069-5.535 7.912-7.871 11.48-24.787 37.86-44.484 73.12-60.211 107.778-16.541 36.476-18.852 82.096-6.507 128.457 11.33 42.55 34.051 81.586 60.779 104.421 24.757 21.15 53.048 32.329 81.817 32.329 1.283 0 2.583-0.022 3.864-0.067l2.603-0.091 2.603 0.097c1.106 0.039 2.229 0.060 3.333 0.060zM523.401 886.857c-2.008 0-4.009-0.037-6.015-0.112-2.128 0.075-4.259 0.112-6.389 0.112-44.838 0-89.908-16.544-128.584-49.586-74.706-63.824-123.834-205.424-73.078-317.355 18.64-41.077 40.918-79.863 65.546-117.48 11.624-17.756 25.479-34.199 32.764-54.539 1.297-3.623 17.256-71.379-31.654-100.514-18.871-15.783-40.353-27.234-63.101-35.945-38.008-14.557-76.481-27.893-114.627-42.094-30.637-11.402-125.184-43.012-125.028-109.547 0.079-33.328 0.056-45.797 0.012-49.945l878.23 0.139c0 0 0.018 18.652 0.043 47.607-2.129 54.828-67.805 88.592-87.438 96.316-37.219 14.643-74.887 28.148-112.461 41.869-21.109 7.709-42.141 15.484-62.34 25.166-13.781 7.178-26.84 15.822-38.781 26.434-46.045 29.135-31.020 96.891-29.799 100.514 6.855 20.34 19.902 36.783 30.844 54.539 23.184 37.617 44.158 76.403 61.705 117.48 47.785 111.931 1.533 253.531-68.797 317.355-36.407 33.040-78.843 49.586-121.052 49.586v0zM935.607 9.852h-0.098c0.013-1.377 0.028-1.836 0.043-1.836 0.029 0 0.055 1.836 0.055 1.836v0z" />
<glyph unicode="&#xe943;" glyph-name="plan" d="M286 352h111v-112h-111v112zM286 465h111v-75h-111v75zM436 465h150v-75h-150v75zM436 352h150v-112h-150v112zM511.368 960.276c-282.768 0-512-229.231-512-512.002 0-282.768 229.232-511.998 512-511.998 282.771 0 511.999 229.23 511.999 511.998 0.003 282.771-229.228 512.002-511.999 512.002zM586 670.691c0 10.273 8.227 18.602 18.5 18.602s18.5-8.328 18.5-18.602v-75.359c0-10.272-8.227-18.601-18.5-18.601s-18.5 8.329-18.5 18.601v75.359zM474 651h74v-37h-74v37zM398 670.691c0 10.273 8.727 18.602 19 18.602s19-8.328 19-18.602v-75.359c0-10.272-8.727-18.601-19-18.601s-19 8.328-19 18.601v75.359zM773 203h-524v448h112v-37h-75v-112h448v112h-74v37h113v-448zM623 465h111v-75h-111v75zM623 352h111v-112h-111v112z" />
<glyph unicode="&#xe944;" glyph-name="plus" d="M878 448h-366v366h-73v-366h-366v-73h366v-366h73v366h366z" />
<glyph unicode="&#xe945;" glyph-name="postcode" d="M787.375 814c-4.418-41-39.352-73.428-81.804-73.428s-77.385 32.428-81.803 73.428h-221.393c-4.418-41-39.352-73.428-81.804-73.428s-77.385 32.428-81.803 73.428h-238.768v-732h238.768c4.418 41 39.352 73.428 81.804 73.428s77.385-32.428 81.803-73.428h221.393c4.418 41 39.352 73.428 81.804 73.428s77.385-32.428 81.803-73.428l236.625 0.143v731.857h-236.625zM951 155h-125.387c-26.316 39-70.704 64.143-121.042 64.143s-94.725-25.143-121.042-64.143h-142.916c-26.316 39-70.705 64.143-121.042 64.143-50.338 0-94.726-25.143-121.042-64.143h-125.529v586h125.529c26.316-39 70.704-64.143 121.042-64.143 50.337 0 94.726 25.143 121.042 64.143h142.916c26.316-39 70.704-64.143 121.042-64.143s94.726 25.143 121.042 64.143h125.387v-586z" />
<glyph unicode="&#xe946;" glyph-name="prev-one" d="M804.573 593.371l-292.573 292.573v1.056c0 0-35.5 38.5-73 0 0-0.916 0-0.916 0-0.916l-292.714-292.713 51.72-51.72 240.994 240.993v-846.644h73v846.502l240.854-240.851 51.719 51.72z" />
<glyph unicode="&#xe947;" glyph-name="progress" d="M512 960.857c-282.768 0-512-229.232-512-512.002 0-282.767 229.232-511.998 512-511.998 282.771 0 512 229.23 512 511.998 0 282.77-229.229 512.002-512 512.002zM512 9.856c-242.451 0-439 196.548-439 438.999 0 242.454 196.549 439.001 439 439.001 242.455 0 439-196.548 439-439.001 0-242.451-196.545-438.999-439-438.999zM293 302h73v-147h-73v147zM512 302h73v-147h-73v147zM732 448h73v-293h-73v293zM788.317 586.158l-45.433 51.826-215.81-211.035-88.217 67.147-252.793-185.112-40.635 65.016 293.428 220.286 87.533-65.016 172.531 162.54-48.762 48.761h154.413z" />
<glyph unicode="&#xe948;" glyph-name="project" d="M1024 641.893l-511.804 244.754-512.196-244.943v-21.584l512.196-244.943 511.804 244.755v21.961zM512.196 455.882l-375.354 175.030 375.354 175.030 375.354-175.030-375.354-175.030zM1024 474.54l-511.804-238.657-512.196 238.84v-80.705l512.196-238.841 511.804 238.658zM1024 255.541l-511.804-238.658-512.196 238.841v-80.706l512.196-238.838 511.804 238.655z" />
<glyph unicode="&#xe949;" glyph-name="publish" d="M510.471 960c-282.768 0-512-229.231-512-512.002 0-282.768 229.232-511.998 512-511.998 282.771 0 512 229.23 512 511.998-0.001 282.771-229.229 512.002-512 512.002zM510.471 9c-242.451 0-439 196.547-439 438.998 0.001 242.454 196.55 439.002 439 439.002 242.455 0 439-196.548 439-439.001s-196.545-438.999-439-438.999zM193.529 426.051c-0.020 12.854 5.605 20.516 17.174 24.94 36.492 13.958 73.005 27.855 109.51 41.781 155.846 59.451 311.687 118.918 467.558 178.303 5.631 2.145 11.465 4.008 17.371 5.116 14.354 2.695 22.371-9.431 22.27-21.042-0.045-5.106-1.438-10.504-3.453-15.243-42.281-99.381-84.74-198.686-127.162-298.006-12.047-28.203-23.986-56.457-36.217-84.58-2.15-4.943-4.77-10.078-8.457-13.877-7.955-8.195-17.799-7.369-27.57-3.457-34.893 13.973-69.752 28.037-104.618 42.074-4.482 1.807-9.021 3.498-13.393 5.545-4.931 2.309-8.641 1.17-12.395-2.654-18.162-18.504-36.551-36.779-54.746-55.246-6.714-6.816-14.389-10.186-23.905-7.578-9.395 2.572-15.1 8.703-16.849 18.406-5.334 29.582-10.902 59.121-15.891 88.762-1.077 6.402-4.319 9.369-9.846 11.564-53.065 21.086-106.075 42.309-159.107 63.473-7.346 2.932-14.429 6.307-18.058 13.871-1.416 2.949-1.822 6.387-2.216 7.848zM624.563 289.996c41.729 97.43 83.283 194.456 124.84 291.482-0.449 0.308-0.895 0.615-1.344 0.921-99.659-73.716-199.317-147.432-299.897-221.835 59.371-23.748 117.602-47.044 176.401-70.568zM651.561 568.116c-0.287 0.54-0.572 1.080-0.857 1.62-123.059-47.001-246.121-94.001-370.476-141.495 3.508-1.57 5.389-2.49 7.326-3.268 33.743-13.535 67.565-26.877 101.186-40.711 7.131-2.934 12.392-2.107 18.505 2.447 67.558 50.342 135.288 100.451 202.963 150.635 13.8 10.234 27.569 20.514 41.353 30.772zM435.409 296.369c5.085 4.721 10.028 9.307 15.425 14.316-6.474 2.539-12.493 4.902-19.38 7.605 1.492-8.274 2.774-15.374 3.955-21.921z" />
<glyph unicode="&#xe94a;" glyph-name="question" d="M512 959.958c-282.877 0-511.999-229.123-511.999-512s229.122-511.998 511.999-511.998c282.878 0 512.001 229.121 512.001 511.999s-229.123 511.999-512.001 511.999zM511.829 82.276c-40.435 0-73.145 32.713-73.145 73.146 0 40.437 32.71 73.149 73.145 73.149s73.145-32.713 73.145-73.149c0.455-39.98-32.71-73.146-73.145-73.146zM712.284 547.281c-10.372-21.685-30.641-46.683-61.755-76.854-34.413-32.998-48.554-48.582-54.683-56.123-7.070-8.958-12.729-19.386-16.027-32.113-3.771-13.199-5.655-32.641-5.187-56.684l0.474-23.507h-131.106v23.266c0 34.412 3.097 61.752 8.755 82.965 6.127 22.157 15.234 41.956 27.49 58.456 11.314 15.555 30.243 36.768 57.584 65.524 31.111 32.056 43.419 47.612 47.664 55.154 2.827 4.715 7.604 15.556 7.604 41.013 0 17.442-6.030 32.526-18.757 46.669-12.258 13.2-30.692 19.327-56.149 19.327-74.953 0-85.476-100.085-85.476-100.085l-131.081 0.007c1.415 44.313 7.601 71.793 17.499 96.307 9.9 24.984 26.399 47.611 48.083 67.409 21.213 19.329 45.728 33.47 71.654 42.428 25.927 8.958 53.268 13.199 81.551 13.199 57.983 0 107.48-17.442 147.078-52.325 40.070-35.829 60.811-83.446 60.811-141.901 0.001-25.455-5.185-49.977-16.026-72.132z" />
<glyph unicode="&#xe94b;" glyph-name="receive-box" d="M1024 447.114l-219 159.424v280.462h-586v-280.462l-219-159.424v-511.114h1024v511.114zM73 12v357.797l439.399-142.73 438.601 142.458v-357.525h-878zM916.49 435.126l-111.49-36.226v117.228l111.49-81.002zM731 814v-438.865l-218.586-71.163-219.414 71.432v438.596h438zM219 399.17l-111.234 36.143 111.234 80.815v-116.958zM366 521h292v-73h-292v73zM366 667h292v-73h-292v73z" />
<glyph unicode="&#xe94c;" glyph-name="recover" d="M789.504 824.897c-223.078 129.245-508.778 53.032-638.123-170.221-29.704-51.27-48.559-105.834-57.311-161.042l-55.050-0.272c-13.297-0.062-20.933-4.695-30.155-14.294-9.654-10.015-8.104-28.263-1.549-39.675l98.34-147.693c6.563-11.396 17.824-19.896 31.119-19.834 13.299 0.063 24.695 8.668 31.423 20.148l75.38 148.546c6.743 11.474 6.833 24.465 0.283 35.853-6.555 11.412-17.83 17.851-31.141 17.796l-51.002-0.241c0.107 0.672 0.231 1.339 0.346 2.010 8.253 42.974 23.728 85.324 46.907 125.332 110.903 191.422 355.867 256.769 547.14 145.952 191.271-110.815 256.421-355.832 145.518-547.25-95.1-164.146-288.765-235.58-462.629-182.742v-69.173c197.634-50.814 412.821 33.174 520.218 218.547 129.342 223.252 53.362 509.011-169.714 638.253z" />
<glyph unicode="&#xe94d;" glyph-name="reply" d="M10.188 478.986c-7.46-7.020-10.637-16.329-10.137-25.509-0.5-9.206 2.676-18.515 10.137-25.535l350.711-347.945c6.484-7.455 15.919-12.506 26.913-12.506 9.989 0 18.925 4.002 25.352 10.309 0.094 0.092 0.211 0.105 0.302 0.221 8.052 7.541 10.907 17.766 9.69 27.652 0 0 0.613 168.959 0.613 180.379 232.994 0 443.75-140.715 485.577-350.053 28.163 61.371 43.982 110.711 43.982 181.904 0 277.545-237.364 502.572-530.172 502.572v172.020c1.217 9.893-1.638 20.093-9.69 27.677-13.981 13.149-36.647 13.149-50.633 0l-352.645-341.186zM85.582 453.455l270.347 268.83v-168.818c0 0 88.239 0.872 106.606 0.328 249.313-7.35 422.467-276.458 423.563-402.38-76.159 92.699-276.32 201.586-423.561 201.586-23.111 0-106.607-0.582-106.607-0.582v-179.965l-270.348 281.001z" />
<glyph unicode="&#xe94e;" glyph-name="reply-all" d="M72.926 446.514c35.306-35.014 70.058-69.445 104.78-103.905 44.879-44.546 159.969-160.476 204.678-205.191 18.087-18.087 12.252-46.119-10.909-53.417-12.579-3.963-23.726-1.017-33.189 8.399-47.852 47.596-165.894 166.603-213.801 214.15-36.329 36.059-72.649 72.124-109.029 108.134-20.034 19.829-20.699 43.479-1.375 62.681 84.729 84.182 247.64 250.571 332.343 334.777 9.376 9.323 20.331 12.9 33.003 9.393 11.859-3.283 19.394-11.455 22.042-23.422 2.646-11.964-1.275-22.037-9.941-30.625-54.17-53.71-186.378-189.773-240.513-243.515-25.811-25.631-51.648-51.235-78.089-77.459zM228.493 465.015c-6.302-5.93-8.986-13.794-8.563-21.55-0.423-7.778 2.261-15.643 8.563-21.572l296.278-307.961c5.479-6.298 13.448-10.563 22.735-10.563 8.439 0 15.988 3.381 21.418 8.708 0.079 0.077 0.178 0.089 0.256 0.186 6.803 6.372 9.213 15.009 8.186 23.361 0 0 0.518 156.755 0.518 166.401 196.831 0 374.877-134.32 410.21-311.168 23.793 51.847 37.157 108.975 37.157 169.118 0 234.468-200.524 424.569-447.885 424.569v166.738c1.027 8.357-1.383 16.975-8.186 23.381-11.812 11.108-30.961 11.108-42.775 0l-297.912-309.648zM520.573 206.059l-228.387 237.388 228.387 237.384v-152.896c0 0 74.543 0.736 90.061 0.277 210.617-6.209 356.896-233.551 357.823-339.928-64.339 78.313-233.434 170.298-357.821 170.298-19.524 0-90.062-0.49-90.062-0.49v-152.033h-0.001z" />
<glyph unicode="&#xe94f;" glyph-name="report" d="M0 886.857h73.143v-930.512h-73.143v930.512zM0 9.143h1024.030v-73.144h-1024.030v73.144zM219.428 448h585.171v-73.142h-585.171v73.142zM950.857 835.137l-219.428-222.566-73.143-18.286 18.285 73.143 222.567 219.429zM219.429 228.57h585.172v-73.143h-585.172v73.143zM0 887h658v-73h-658v73zM951 594h73v-638h-73v638z" />
<glyph unicode="&#xe950;" glyph-name="save" d="M585 739h73v-145h-73v145zM1024-61.94v948.94h-1024v-951h1024v2.060zM805 521h-586v293h586v-293zM146 814v-366h732v366h73v-805h-878v805h73z" />
<glyph unicode="&#xe951;" glyph-name="schedule1" d="M438.857 813.857h146.312v-73.144h-146.312v73.144zM366 703.5c0-20.158-16.342-36.5-36.5-36.5v0c-20.158 0-36.5 16.342-36.5 36.5v147c0 20.158 16.342 36.5 36.5 36.5v0c20.158 0 36.5-16.342 36.5-36.5v-147zM731 703.5c0-20.158-16.342-36.5-36.5-36.5v0c-20.158 0-36.5 16.342-36.5 36.5v147c0 20.158 16.342 36.5 36.5 36.5v0c20.158 0 36.5-16.342 36.5-36.5v-147zM805 814v-73h146v-220h-878v220h146v73h-219v-878h1024v878h-219zM292 9h-219v220h219v-220zM292 302h-219v146h219v-146zM658 9h-293v220h293v-220zM658 302h-293v146h293v-146zM951 9h-220v220h220v-220zM951 302h-220v146h220v-146z" />
<glyph unicode="&#xe952;" glyph-name="search" d="M1009.48 10.812c-67.288 67.427-199.491 198.168-232.69 230.326 63.030 75.984 100.926 173.568 100.926 280.005 0 242.374-196.485 438.857-438.859 438.857s-438.857-196.483-438.857-438.857c0-242.373 196.483-438.858 438.857-438.858 105.703 0 202.676 37.374 278.431 99.624 37.636-38.096 175.565-176.229 230.549-231.147 12.616-12.601 27.156-17.812 44.342-12.981 32.811 9.229 42.041 48.247 17.301 73.031zM74.058 521.143c0 201.474 163.326 364.8 364.8 364.8s364.8-163.326 364.8-364.8c0-201.473-163.326-364.799-364.8-364.799s-364.8 163.326-364.8 364.799z" />
<glyph unicode="&#xe953;" glyph-name="select-all" d="M1024 960h-1024v-1024h1024v1024zM951 887v-875h-878v875h878zM219 155h586v585.571l-0.428 0.429h-585.572v-586zM731 229h-438v438h438v-438z" />
<glyph unicode="&#xe954;" glyph-name="send" d="M867.505 871.040c-8.242-4.443-856.685-448.935-856.685-448.935l317.124-167.372 167.91-313.728c0 0 431.995 846.678 440.358 862.091 47.256 105.39-31.772 89.584-68.707 67.944zM805.089 774.704l-450.718-466.873-224.577 108.382 675.295 358.491zM388.241 266.148l450.198 475.208-341.817-683.632-108.381 208.424z" />
<glyph unicode="&#xe955;" glyph-name="setting" d="M360.852 932.571c21.447-2.368 38.319-10.592 54.159-24.142 18.684-15.984 38.613-30.78 59.32-43.988 24.885-15.874 51.715-15.196 76.535 0.207 19.909 12.355 39.439 25.989 56.842 41.652 27.412 24.674 58.574 29.993 90.858 12.096 36.866-20.438 73.729-40.889 110.588-61.338 33.202-18.42 46.063-51.73 31.076-86.579-32.199-74.862 17.641-151.445 86.179-166.304 7.74-1.679 15.735-2.82 23.635-2.993 30.717-0.665 49.613-13.956 56.345-44.341 11.987-54.11 16.569-108.909 8.635-164.2-2.389-16.646-4.496-33.395-8.157-49.77-6.262-28.037-27.199-46.781-55.922-46.746-66.199 0.076-119.349-53.709-120.768-120.213-0.339-15.885 4.882-32.49 10.276-47.783 13.187-37.396 2.118-69.154-32.615-88.297-37.916-20.898-75.794-41.865-113.776-62.641-29.797-16.301-63.003-9.607-87.691 13.695-18.399 17.371-38.993 32.758-60.11 46.719-25.343 16.748-52.92 16.635-78.346 0.037-20.894-13.637-41.414-28.494-59.651-45.486-24.828-23.133-58.389-29.723-87.808-13.348-37.499 20.875-74.952 41.838-112.359 62.879-31.297 17.605-43.876 51.055-29.533 84.313 32.951 76.4-17.396 153.16-86.842 167.686-8.135 1.703-16.652 3.635-24.777 2.93-29.128-2.52-47.45 17.834-53.362 41.922-9.968 40.616-15.25 82.179-13.113 123.99 1.479 28.935 6.695 57.688 10.564 86.476 0.755 5.607 2.601 11.165 4.623 16.481 9.304 24.467 25.196 35.397 51.173 35.571 69.843 0.469 125.952 59.614 121.667 129.509-0.823 13.434-5.158 27.007-9.865 39.767-13.329 36.135-2.157 68.088 31.445 86.562 38.935 21.405 77.689 43.158 116.962 63.913 10.443 5.518 22.497 7.927 33.813 11.764zM769.697 103.084c-3.409 13.354-7.426 25.736-9.574 38.439-2.157 12.744-3.701 25.842-3.367 38.729 2.486 95.572 77.924 177.881 172.087 188.096 6.313 0.682 8.892 2.49 10.095 9.268 8.384 47.24 8.62 94.342 0.043 141.585-1.146 6.298-2.848 9.394-9.516 10.112-40.874 4.404-76.941 20.591-107.139 48.433-48.725 44.924-71.641 100.654-63.847 167.567 1.922 16.485 6.918 32.606 10.679 49.703-34.066 18.892-68.512 38.159-103.239 56.887-2.369 1.279-7.621-0.505-10.272-2.541-12.668-9.727-24.402-20.744-37.388-29.986-28.796-20.49-59.686-36.442-95.673-39.253-43.723-3.416-80.742 14.268-115.186 38.656-16.030 11.349-30.81 24.495-46.429 37.045-37.263-20.508-74.687-41.104-110.879-61.022 4.114-18.625 9.605-35.19 11.213-52.129 9.627-101.424-58.5-192.309-157.416-211.221-21.94-4.194-22.068-4.173-25.712-26.28-7.051-42.781-5.207-85.451 2.501-127.914 0.59-3.252 4.871-7.934 7.887-8.313 48.23-6.080 89.272-26.533 122.011-62.656 41.301-45.57 58.607-99.205 49.203-160.666-2.173-14.207-6.557-28.066-10.103-42.834 34.963-19.549 69.98-39.127 103.465-57.85 21.292 16.428 40.676 33.090 61.699 47.281 60.054 40.529 121.375 41.822 181.92 1.295 20.122-13.467 38.070-30.223 57.257-45.154 2.757-2.143 7.989-4.543 10.23-3.338 35.379 19.043 70.453 38.659 105.45 58.061zM507.104 268.535c-99.569-0.023-181.051 81.316-181.246 180.93-0.195 99.094 81.818 181.094 181.162 181.132 100.6 0.038 181.286-80.841 181.23-181.657-0.059-100.071-80.7-180.383-181.146-180.405zM615.046 449.502c-0.059 59.030-48.629 107.553-107.691 107.586-58.785 0.031-108.066-49.175-107.784-107.617 0.285-59.225 48.711-107.502 107.84-107.506 59.076-0.002 107.693 48.57 107.635 107.537z" />
<glyph unicode="&#xe956;" glyph-name="signture" d="M1024 887v0 0h-1024v-951h1024v951zM899.14 814l-341.425-341.566 51.791-51.791 341.494 341.351v-749.994h-878v802h826.14zM219 229h586v-74h-586v74zM219 375h586v-73h-586v73zM219 667h366v-73h-366v73z" />
<glyph unicode="&#xe957;" glyph-name="task" d="M1024 886.857v0.143l-1024-0.143v-950.857h1024v950.857zM951 814v-805h-878v805h878zM365.714 447.998h512.027v-73.143h-512.027v73.143zM365.74 228.571h512.027v-73.143h-512.027v73.143zM365.714 667.428h512.026v-73.143h-512.026v73.143zM146.286 667.428h73.168v-73.143h-73.168v73.143zM146.26 447.999h73.168v-73.143h-73.168v73.143zM146.286 228.571h73.168v-73.143h-73.168v73.143z" />
<glyph unicode="&#xe958;" glyph-name="teamdynamic" d="M841.143 301.714c-73.637 0-137.097-43.532-166.076-106.261l-318.65 158.284c6.026 18.138 9.298 37.532 9.298 57.692 0 13.054-1.378 25.783-3.979 38.063l322.674 160.283c31.996-53.106 90.214-88.629 156.732-88.629 100.99 0 182.857 81.869 182.857 182.855 0 100.988-81.867 182.856-182.857 182.856-100.988 0-182.856-81.868-182.856-182.856 0-9.96 0.809-19.73 2.341-29.258l-325.682-161.776c-32.799 49.030-88.67 81.318-152.089 81.318-100.988 0.001-182.856-81.867-182.856-182.855 0-100.986 81.868-182.855 182.856-182.855 56.131 0 106.345 25.299 139.888 65.106l335.729-166.767c-0.116-2.672-0.187-5.355-0.187-8.056 0-100.986 81.868-182.855 182.856-182.855 100.99 0 182.857 81.869 182.857 182.855 0.001 100.989-81.866 182.856-182.856 182.856zM841.145 814.002c60.75 0 110-49.249 110-110.001 0-60.75-49.25-109.999-110-109.999-60.752 0-110 49.249-110 109.999 0 60.752 49.248 110.001 110 110.001zM182.858 301.431c-60.752 0-110 49.249-110 109.999 0 60.752 49.248 110.001 110 110.001 60.75 0 110-49.249 110-110.001 0-60.75-49.249-109.999-110-109.999zM841.145 8.859c-60.752 0-110 49.249-110 109.999 0 60.752 49.248 110.001 110 110.001 60.75 0 110-49.249 110-110.001 0-60.75-49.25-109.999-110-109.999z" />
<glyph unicode="&#xe959;" glyph-name="teamwork" d="M920.381 356.908c-4.432 154.927-95.381 288.272-225.381 353.812 0-0.001 0-0.002 0-0.003-4 97.875-84.121 176.137-182.861 176.137-98.539 0-178.93-77.948-182.769-175.545-131.303-65.409-222.5-199.339-226.737-354.971 0.001 0.001-0.015 0.001-0.014 0.002-60.755-29.727-102.611-92.142-102.611-164.338 0-100.986 81.865-182.855 182.853-182.855 26.378 0 51.443 5.595 74.094 15.647 69.843-55.58 158.277-88.795 254.474-88.795 96.383 0 184.973 33.344 254.879 89.118 22.843-10.259 48.172-15.971 74.835-15.971 100.99 0 182.927 81.869 182.927 182.855 0 72.656-42.306 135.412-103.689 164.907zM512.002 813.998c60.75 0 110-49.248 110-110 0-60.75-49.25-110-110-110-60.752 0-110 49.25-110 110 0 60.752 49.248 110 110 110zM182.859 82.002c-60.752 0-110 49.25-110 110 0 60.752 49.248 110 110 110 60.75 0 110-49.248 110-110 0-60.75-49.25-110-110-110zM702.092 73.285c-0.002 0.002-0.004-0.005-0.006-0.003-53.952-37.926-119.699-60.214-190.657-60.214-70.644 0-136.119 22.085-189.936 59.704-0.003-0.004-0.007-0.008-0.011-0.012 27.565 32.016 44.232 73.681 44.232 119.241 0 100.988-81.867 182.939-182.857 182.939-0.684 0-1.364 0.059-2.047 0.059 0.007 0 0.013 0 0.020 0 9.771 109 72.874 203.885 163.192 256.744 28.034-65.006 92.687-110.558 167.978-110.558 75.084 0 139.586 45.316 167.743 110.036 89.829-52.957 152.54-147.221 162.282-256.221 0.022 0 0.045 0 0.067 0-0.317 0-0.632-0.066-0.949-0.066-100.988 0-182.857-81.904-182.857-182.893 0-45.322 16.498-86.808 43.806-118.756zM841.146 82.002c-60.752 0-110 49.25-110 110 0 60.752 49.248 110 110 110 60.75 0 110-49.248 110-110 0-60.75-49.25-110-110-110z" />
<glyph unicode="&#xe95a;" glyph-name="telephone" d="M373.075 153.92c34.87-19.416 57.618-24.967 65.198-24.967 34.885 5.551 92.499 84.61 92.499 110.968 0 24.965-27.292 34.678-51.563 55.482-24.257-80.451-57.618-112.359-106.134-141.483zM694.322 579.787c16.678 2.766 73.678 60.213 60.84 130.383-6.059 8.316-30.529 30.519-60.854 40.228-1.511-69.35-18.308-106.809-56.308-160.902v-0.002c19-6.942 41.164-9.707 56.322-9.707zM512.3 960c-282.77 0-512-229.231-512-512.002 0-62.526 11.209-122.434 31.727-177.823 16.262-43.9 38.371-84.963 65.383-122.242 14.635-19.323 31.17-40.515 41.131-49.849 38.125-32.751 82.793 16.249 44.953 59.039-9.17 10.359-17.859 21.155-26.031 32.353-22.314 30.573-40.771 64.139-54.66 99.982-19.053 49.175-29.503 102.637-29.503 158.54 0 242.453 196.549 439.002 439 439.002 242.454 0 439-196.549 439-439.002 0-242.45-196.547-438.998-439-438.998-77.61 0-144.447 24.424-173.374 76.212-20.695 37.051-10.893 71.534-3.638 88.161 3.343-1.429 6.823-2.833 10.479-4.193 33.361 0 72.788 48.542 95.537 88.788 10.613 19.415 13.645 38.831 13.645 44.383-3.031 22.201-24.258 19.416-24.258 54.092 0 24.967 12.135 69.365 59.141 145.659 65.196 112.363 89.463 84.611 115.235 94.318 6.068 2.787 9.104 5.552 13.646 9.707 27.303 34.694 43.984 94.336 40.947 134.563 0 12.494 0 19.415-4.553 22.2-12.125 2.763-30.324 4.157-50.039 4.157-37.906 0-48.52-1.392-66.719-16.65v0c-33.364-22.2-89.465-91.551-127.372-148.429-86.434-122.066-145.574-277.42-144.050-362.048-0.157-7.288 1.991-22.568 12.124-30.296 0 0 0.354-0.392 1.056-1.102-5.463-11.477-12.26-34.495-15.969-80.358 4.915-93.732 72.351-182.688 248.161-192.164 282.77 0 511.999 229.23 511.999 511.997 0.002 282.772-229.228 512.003-511.998 512.003z" />
<glyph unicode="&#xe95b;" glyph-name="temp-approval" d="M1024 887l-1024-0.143v-950.857h1024v951zM951 9h-878v805h878v-805zM146 448h512v-73h-512v73zM146 667h660v-73h-660v73z" />
<glyph unicode="&#xe95c;" glyph-name="todo-approval" d="M1024 594h-73v-582h-878v802h658v73h-731v-951h1024zM219 229h586v-74h-586v74zM219 375h512v-73h-512v73zM585.144 450.758l86.391 28.596 328.355 328.355-51.719 51.72-334.36-334.36z" />
<glyph unicode="&#xe95d;" glyph-name="warning" d="M512 960c-282.768 0-512-229.231-512-512.002 0-282.768 229.232-511.998 512-511.998 282.771 0 512 229.23 512 511.998 0 282.771-229.229 512.002-512 512.002zM512 9c-242.451 0-439 196.547-439 438.998 0 242.454 196.549 439.002 439 439.002 242.455 0 439-196.548 439-439.001s-196.545-438.999-439-438.999zM585.143 228.57c0-40.396-32.747-73.143-73.143-73.143s-73.143 32.747-73.143 73.143c0 40.396 32.747 73.143 73.143 73.143s73.143-32.747 73.143-73.143zM585.144 684.899c0 40.247-32.601 72.841-72.841 72.841-40.248 0-72.843-32.594-72.843-72.841l35.11-274.709c0-19.514 16.789-35.333 37.5-35.333 20.302 0 36.825 15.204 37.469 34.186l35.605 275.856z" />
<glyph unicode="&#xe95e;" glyph-name="warning-filled" d="M512 960c-282.768 0-512-229.231-512-512.002 0-282.768 229.232-511.998 512-511.998 282.771 0 512 229.23 512 511.998 0 282.771-229.229 512.002-512 512.002zM512 155.429c-40.396 0-73.143 32.746-73.143 73.142s32.747 73.143 73.143 73.143 73.143-32.746 73.143-73.143c0-40.396-32.747-73.142-73.143-73.142zM549.539 409.042c-0.644-18.981-17.167-34.186-37.469-34.186-20.711 0-37.5 15.819-37.5 35.333l-35.11 274.709c0 40.247 32.595 72.841 72.843 72.841 40.24 0 72.841-32.594 72.841-72.841l-35.605-275.856z" />
<glyph unicode="&#xe95f;" glyph-name="person-schedule" d="M1024 265.113c-0.193-142.725-115.702-257.96-258.581-257.971-142.915-0.011-259.504 116.592-258.858 258.89 0.652 144.339 116.803 258.458 262.691 258.095 139.96-0.351 254.938-117.254 254.748-259.014zM765.419 53.113c117.229 0.014 212.612 94.862 212.7 211.506 0.088 117.111-94.646 213.59-209.764 213.628-119.97 0.036-215.813-94.372-215.823-212.589-0.007-117.242 95.461-212.559 212.887-212.545zM493.756 137c-140.896 0-290.892 0-430.79 0 12.145 12 25.773 19.684 40.356 25.303 37.944 14.613 76.112 28.773 114.288 42.782 30.042 11.023 59.523 23.041 85.51 42.326 16.084 11.936 31.87 23.968 42.618 41.436 16.121 26.209 20.825 54.813 19.757 85.077-1.050 29.742-12.748 55.179-29.451 78.905-23.239 33.013-43.269 67.879-61.772 103.771-20.599 39.956-25.155 81.576-16.179 124.938 8.927 43.131 27.095 81.682 59.687 112.321 39.723 37.343 98.911 43.128 138.771 23.513 28.671-14.11 48.272-37.198 63.168-64.799 18.776-34.787 28.498-72.052 29.245-111.473 0.619-32.365-8.276-62.51-22.493-91.482-16.643-33.919-34.854-66.882-55.67-98.419-13.844-20.973-24.753-43.148-26.663-68.767-3.015-40.477 3.477-77.060 28.422-107.127 3.675 30.979 12.774 60.295 26.34 86.961-0.313 20.874 6.074 40.611 19.114 59.445 21.882 31.6 39.989 65.447 57.008 99.903 16.606 33.625 28.302 68.561 29.432 106.324 1.824 61.044-13.079 117.872-46.368 169.105-32.672 50.288-77.294 82.67-139.208 86.43-64.139 3.895-117.107-19.528-157.788-68.422-43.905-52.77-64.144-114.575-62.971-183.229 0.492-28.835 6.403-56.596 18.303-82.941 20.361-45.076 45.007-87.74 73.856-127.872 14.542-20.23 21.8-41.97 19.334-66.905-1.903-19.25-7.95-36.611-23.361-49.149-16.66-13.549-34.050-26.316-54.304-34.047-39.001-14.879-78.176-29.298-117.338-43.756-27.801-10.261-55.3-21.085-79.036-39.444-15.062-11.65-29.028-25.042-32.106-44.21-3.227-20.1-2.507-40.498-3.53-61.498 172.33 0 355.21 0 527.49 0-13.369 16.773-24.724 35.224-33.671 55zM896.936 225.55l-119.936 43.357v100.236c0 12.624-10.233 22.857-22.857 22.857h-0.285c-12.625 0-22.858-10.233-22.858-22.857v-110.285c0-0.803 0.042-1.596 0.123-2.378-0.959-9.407 4.022-18.806 13.076-23.029l133.288-49.587c11.439-5.337 25.040-0.39 30.377 11.050l0.121 0.259c5.338 11.439 0.391 25.040-11.049 30.377z" />
<glyph unicode="&#xe960;" glyph-name="subordinate-schedule" d="M878 887l-878-0.143v-950.857h805v73h-732v805h732v-147h73zM146.286 447.999h292.598v-73.143h-292.598v73.143zM146.286 228.571h219.455v-73.143h-219.455v73.143zM146.259 667.428h365.741v-73.143h-365.741v73.143zM1024 341.113c-0.193-142.725-115.702-257.96-258.581-257.971-142.915-0.011-259.504 116.592-258.858 258.89 0.652 144.339 116.803 258.458 262.691 258.095 139.96-0.351 254.938-117.254 254.748-259.014zM765.419 129.113c117.229 0.014 212.612 94.862 212.7 211.506 0.088 117.111-94.646 213.59-209.764 213.628-119.97 0.036-215.813-94.372-215.823-212.589-0.007-117.242 95.461-212.559 212.887-212.545zM896.936 306.55l-119.936 43.357v100.236c0 12.624-10.233 22.857-22.857 22.857h-0.285c-12.625 0-22.858-10.233-22.858-22.857v-110.285c0-0.803 0.042-1.596 0.123-2.378-0.959-9.407 4.022-18.806 13.076-23.029l133.288-49.587c11.439-5.337 25.040-0.39 30.377 11.050l0.121 0.259c5.338 11.439 0.391 25.040-11.049 30.377z" />
<glyph unicode="&#xe961;" glyph-name="write-mail" d="M950.857 374.856h73.143v-418.512h-73.143v418.512zM0 886.857h73.143v-930.512h-73.143v930.512zM0 9.143h1024.027v-73.144h-1024.027v73.144zM0 886.857h365.741v-73.144h-365.741v73.144zM337.958 325.080l558.74 558.74 51.618-51.618-558.74-558.74-51.618 51.618z" />
<glyph unicode="&#xe962;" glyph-name="flag-emt" d="M302.623 318.124l585.719 423.186-703.215 166.265-3.916 19.649c-4.7 23.579-23.55 36.163-47.13 31.463-15.716-3.134-29.087-18.056-30.666-30.628l-3.93-0.783 191.124-958.84c4.7-23.579 23.555-36.162 47.13-31.461 23.578 4.696 36.164 23.549 31.462 47.128l-66.578 334.021zM283.429 402.285l-91.429 429.715 548.572-118.857-457.143-310.858z" />
<glyph unicode="&#xe963;" glyph-name="flag" d="M888.342 741.31l-703.215 166.265-3.916 19.649c-4.7 23.579-23.55 36.163-47.13 31.463-15.716-3.134-29.087-18.056-30.666-30.628l-3.93-0.783 191.124-958.84c4.7-23.579 23.555-36.162 47.13-31.461 23.578 4.696 36.164 23.549 31.462 47.128l-66.58 334.021 585.721 423.186z" />
<glyph unicode="&#xe964;" glyph-name="moveto" d="M685.715 741l-173.715 146h-512v-951h1024v805h-338.285zM951 9h-878v805h413.866l171.42-147h292.714v-658zM551.34 516.699l155.633-144.96h-487.544v-63.099h487.667l-155.756-145.079 44.703-44.704c0 0 152.726 150.147 191.744 189.784 31.982 34.862 0 63.099 0 63.099l-191.744 189.665-44.703-44.706z" />
<glyph unicode="&#xe965;" glyph-name="scan" d="M1024 412.256c0-19.472-15.784-35.256-35.256-35.256h-953.488c-19.471 0-35.256 15.784-35.256 35.256v0.488c0 19.472 15.785 35.256 35.256 35.256h953.488c19.472 0 35.256-15.784 35.256-35.256v-0.488zM366 887h-243c-27.614 0-50-22.386-50-50v-243h73v170c0 27.614 22.386 50 50 50h170v73zM900 887h-242v-73h169c27.614 0 50-22.386 50-50v-170h73v243c0 27.614-22.386 50-50 50zM877 229v-170c0-27.614-22.386-50-50-50h-169v-73h242c27.614 0 50 22.386 50 50v243h-73zM375 9h-179c-27.614 0-50 22.386-50 50v170h-73v-243c0-27.614 22.386-50 50-50h252v73z" />
<glyph unicode="&#xe966;" glyph-name="warning-hight" d="M511.816 9.143c-40.511 0-73.324 32.81-73.324 73.327 0 40.504 32.813 73.315 73.324 73.315 40.514 0 73.327-32.812 73.327-73.315 0.001-40.518-32.813-73.327-73.327-73.327v0zM458.595 273.62l-50.924 415.498c-27.312 164.396 224.408 167.852 203.687 0l-50.933-415.498c-15.379-66.183-93.033-59.601-101.83 0z" />
<glyph unicode="&#xe967;" glyph-name="folder" d="M974 741h-386v98c0 27.614-22.386 50-50 50h-488c-27.614 0-50-22.386-50-50v-853c0-27.614 22.386-50 50-50h924c27.614 0 50 22.386 50 50v705c0 27.614-22.39 50-50 50zM73 771.705c0 23.359 19.136 42.295 42.741 42.295h353.66c21.645 0 39.399-16.287 42.202-37l0.397-110 393.403 0.429c23.604 0 42.598-21.224 42.598-44.583v-101.846h-875.001v250.705zM948 50.295c0-23.358-18.994-42.295-42.599-42.295h-789.66c-23.605 0-42.741 18.937-42.741 42.295v397.705h875v-397.705z" />
<glyph unicode="&#xe968;" glyph-name="more" d="M512 960c-282.768 0-512-229.231-512-512.002 0-282.768 229.232-511.998 512-511.998 282.771 0 512 229.23 512 511.998 0 282.771-229.229 512.002-512 512.002zM512 9c-242.451 0-439 196.547-439 438.998 0 242.454 196.549 439.002 439 439.002 242.455 0 439-196.548 439-439.001s-196.545-438.999-439-438.999zM365.715 448c0-40.396-32.747-73.143-73.143-73.143s-73.143 32.747-73.143 73.143c0 40.396 32.747 73.143 73.143 73.143s73.143-32.747 73.143-73.143zM803.715 448c0-40.396-32.747-73.143-73.143-73.143s-73.143 32.747-73.143 73.143c0 40.396 32.747 73.143 73.143 73.143s73.143-32.747 73.143-73.143zM584.715 448c0-40.396-32.747-73.143-73.143-73.143s-73.143 32.747-73.143 73.143c0 40.396 32.747 73.143 73.143 73.143s73.143-32.747 73.143-73.143z" />
<glyph unicode="&#xe969;" glyph-name="mail-junk" d="M951 495.064v318.936h-951v-735h541.27c51.142-44 117.557-70.119 190.159-70.119 161.583 0 292.643 131.049 292.643 292.631-0.002 74.191-28.072 141.979-73.072 193.552zM73 155v586h805v-186.007c-43 24.895-93.137 39.15-146.429 39.15-161.583 0-292.643-131.203-292.643-292.786 0-53.232 14.151-103.357 38.995-146.357h-404.923zM731.143 534.428c55.128 0 105.776-19.146 145.688-51.133l-332.837-321.059c-28.891 38.822-45.994 86.937-45.994 139.049 0 128.762 104.382 233.143 233.143 233.143zM731.143 68.143c-52.471 0-100.89 17.338-139.85 46.591l331.314 319.59c26.266-37.729 41.679-83.581 41.679-133.038 0-128.762-104.381-233.143-233.143-233.143z" />
<glyph unicode="&#xe96a;" glyph-name="copy" d="M805 155h219v805h-805v-219h-219v-805h805v219zM293 887h658v-658h-146v512h-512v146zM73 667h658v-658h-658v658z" />
<glyph unicode="&#xe96b;" glyph-name="ignore" d="M512 960c-282.768 0-512-229.231-512-512.002 0-282.768 229.232-511.998 512-511.998 282.771 0 512 229.23 512 511.998 0 282.771-229.229 512.002-512 512.002zM73 447.998c0 108.862 39.631 208.465 105.244 285.182l618.937-618.937c-76.716-65.612-176.318-105.243-285.181-105.243-242.451 0-439 196.547-439 438.998zM848.548 166.114l-618.433 618.433c76.264 63.944 174.576 102.453 281.885 102.453 242.455 0 439-196.548 439-439.001 0-107.311-38.508-205.622-102.452-281.885z" />
<glyph unicode="&#xe96c;" glyph-name="assessment-o" d="M1024 960v0h-1024v-1024h1024v1024zM951 9h-878v878h878v-878zM804.572 539.428l-45.715 45.715-210.286-201.143-73.142 73.143-210.286-146.287-36.571 45.715 251.343 182.857 68.656-73.142 164.573 155.428-45.65 45.715h137.078zM219 228h586v-73h-586v73z" />
<glyph unicode="&#xe96d;" glyph-name="attachment-o" d="M821.233 349.985c14.049 14.154 14.022 37.010-0.088 51.123-14.113 14.111-36.971 14.135-51.12 0.090l-0.45 0.445-272.39-272.394c-84.846-67.691-209.191-62.322-287.716 16.201-78.528 78.527-83.907 202.881-16.214 287.732l396.759 407.175c53.322 34.44 125.408 28.353 172.075-18.313 46.656-46.658 52.744-118.741 18.301-172.065l-354.771-355.703c-1.869-2.93-4.053-5.719-6.608-8.275-18.926-18.924-49.721-18.926-68.648 0s-18.93 49.725-0.003 68.65c2.558 2.559 5.346 4.742 8.276 6.609l279.352 281.69c1.119 0.878 2.209 1.812 3.238 2.841 14.147 14.144 14.147 37.075 0 51.216-14.141 14.143-37.075 14.143-51.221 0-0.412-0.416-0.773-0.862-1.166-1.293l-0.065 0.062-282.328-282.33c-2.664-2.244-5.271-4.59-7.782-7.096-47.431-47.434-47.431-124.611 0.002-172.043 47.429-47.43 124.609-47.43 172.040 0 2.509 2.51 4.856 5.117 7.099 7.783l355.027 355.448c62.505 82.553 56.188 200.959-19.049 276.2-75.248 75.246-193.656 81.566-276.212 19.059l-396.27-407.658c-96.067-113.593-90.585-284.329 16.469-391.384 105.971-105.969 274.332-112.393 387.905-19.32l0.284-0.322 275.574 275.574-0.3 0.298z" />
<glyph unicode="&#xe96e;" glyph-name="attendance-o" d="M366 704.5c0-20.158-16.342-36.5-36.5-36.5v0c-20.158 0-36.5 16.342-36.5 36.5v146c0 20.158 16.342 36.5 36.5 36.5v0c20.158 0 36.5-16.342 36.5-36.5v-146zM732 704.5c0-20.158-16.342-36.5-36.5-36.5v0c-20.158 0-36.5 16.342-36.5 36.5v146c0 20.158 16.342 36.5 36.5 36.5v0c20.158 0 36.5-16.342 36.5-36.5v-146zM439 814h147v-73h-147v73zM994 814h-188v-73h125c11.046 0 20-8.954 20-20v-200h-878v200c0 11.046 8.954 20 20 20h126v73h-189c-16.568 0-30-13.432-30-30v-818c0-16.568 13.432-30 30-30h964c16.568 0 30 13.432 30 30v818c0 16.568-13.43 30-30 30zM931 10h-838c-11.046 0-20 8.954-20 20v418h878v-418c0-11.046-8.954-20-20-20z" />
<glyph unicode="&#xe96f;" glyph-name="book" d="M328.5 594h-146c-20.158 0-36.5-16.342-36.5-36.5s16.342-36.5 36.5-36.5h146c20.158 0 36.5 16.342 36.5 36.5s-16.342 36.5-36.5 36.5zM328.5 375h-146c-20.158 0-36.5-16.342-36.5-36.5s16.342-36.5 36.5-36.5h146c20.158 0 36.5 16.342 36.5 36.5s-16.342 36.5-36.5 36.5zM841.5 593h-146c-20.158 0-36.5-16.342-36.5-36.5s16.342-36.5 36.5-36.5h146c20.158 0 36.5 16.342 36.5 36.5s-16.342 36.5-36.5 36.5zM841.5 374h-146c-20.158 0-36.5-16.342-36.5-36.5s16.342-36.5 36.5-36.5h146c20.158 0 36.5 16.342 36.5 36.5s-16.342 36.5-36.5 36.5zM1024 109.273v666.236c1 57.486-26.275 112.491-104.061 111.491h-210.726c-95.293 0-163.469-34.707-197.555-57.019-34.088 22.312-102.263 57.019-197.554 57.019h-210.725c-57.33 0-105.379-43.808-103.379-111.491v-666.234c0-57.332 45.895-96.275 103.379-96.275h210.57c120.149-2 159.043-27.391 166.72-37.33s17.224-18.775 31.765-18.525c15.291-0.25 29.904 14.572 29.904 14.572s16.732 31.252 162.689 39.615c1.396-0.154 214.738 1.856 214.738 1.856 57.333 0 108.235 28.003 104.235 96.085zM232.912 79.525c-50.822 0-129.688 1.666-129.688 1.666-37.529 0-30.529 42.495-30.529 42.495l-0.101 661.534c-0.666 31.025 26.289 33.78 32.133 34.78h209.066c100.932 4 154.172-47.445 162.074-52.714l1.24-719.835c-9.918 3.563-98.383 35.74-244.195 32.074zM920.079 80.191c0 0-122.479 1.237-207.542-2.945-48.744 3.945-131.777-12.055-166.447-29.049l1.225 717.457c27.426 47.442 115.724 54.346 162.052 54.346h210.572c36.088 0 31.061-46.345 31.061-46.345v-660.973c0 0.002 6.499-40.491-30.921-32.491z" />
<glyph unicode="&#xe970;" glyph-name="forward-o" d="M878 9h-805v732h439v73h-512v-878h951v366h-73zM1017.17 636.873l-229.684 230.373-8.174 6.104c-5.087 2.852-10.83 4.365-16.771 4.365-19.135 0-34.697-15.59-34.697-34.752 0-5.979 1.511-11.72 4.371-16.806l158.885-161.387-132.006-0.048c0 0-42.797 0.109-63.971-4.775-240.629-42.272-301.727-204.4-320.266-450.531 0-19.168 15.555-34.756 34.688-34.756 15.629 0 28.89 10.404 33.22 24.678l1.576 9.226c19.726 235.663 65.398 355.417 265.458 384.246 14.725 2.884 43.408 2.352 43.408 2.352h137.893l-152.819-153.246-6.197-8.729c-2.203-4.628-3.35-10.269-3.35-15.388 0-19.174 15.559-34.762 34.69-34.762 5.445 0 11.457 1.317 16.279 3.809l236.485 235.512c2.099 1.477 4.67 5.102 4.67 7.86 0.002 2.758-3.688 6.655-3.688 6.655z" />
<glyph unicode="&#xe971;" glyph-name="import" d="M512 887v-73h439v-805h-805v439h-73v-512h951v951zM366 371v-69h292v292h-69v-174.992l-480.531 468.792-54.043-55.361 486.565-461.439z" />
<glyph unicode="&#xe972;" glyph-name="person-entry" d="M701.813 263.409c34.186-32.41 81.436 9.090 50.869 54.021-8.729 10.338-37.934 47.568-118.006 69.936 81.117 56.172 134.262 150.774 134.262 256.91 0 171.875-139.327 311.65-311.203 311.65s-311.208-139.119-311.208-310.99c0-106.1 53.109-201.608 134.18-257.791-217.144-85.154-272.104-278.357-279.905-370.479l-0.802-34.558c0-25.467 20.644-46.109 46.108-46.109 25.466 0 46.109 20.644 46.109 46.109v22.224h0.040c14.37 189 172.136 337.572 364.645 337.572 188.999-2.572 244.911-78.495 244.911-78.495zM226.617 647.004c0 127.025 102.976 230 230 230s230-102.975 230-230c0-127.024-102.977-230-230-230-127.025 0-230 102.975-230 230zM917.636 154.547h-365.6l61.631 55.738c6.493 6.49 9.665 14.948 9.665 23.401 0 8.457-3.172 17.064-9.665 23.406-12.834 12.988-33.978 12.988-46.81 0.001l-118.26-112.359c-12.986-12.987-12.986-33.826 0-46.814l118.261-108.308c12.835-12.987 33.824-12.987 46.813 0 12.985 12.982 12.985 33.976 0 46.96l-55.955 45.714h359.921c18.423 0 33.222 20.77 33.222 39.191-0.002 18.271-14.8 33.070-33.223 33.070z" />
<glyph unicode="&#xe973;" glyph-name="dropdown-box" d="M118.857 585.143v0 0zM974 960h-924c-27.614 0-50-22.386-50-50v-924c0-27.614 22.386-50 50-50h924c27.614 0 50 22.386 50 50v924c0 27.614-22.39 50-50 50zM951 59c0-27.614-22.386-50-50-50h-778c-27.614 0-50 22.386-50 50v778c0 27.614 22.386 50 50 50h778c27.614 0 50-22.386 50-50v-778zM755.519 594.286l-488.941-0.258c-51.853 1.639-55.853-43.028-36.354-63.132l242.969-283.452c28.101-29.394 48.767-19.539 68.46-3.533l245.885 277.842c30.816 28.857 24.816 71.857-32.019 72.533z" />
<glyph unicode="&#xe974;" glyph-name="budget" d="M444.205 512.843c12.483-6.435 31.795-10.751 56.795-12.981v-29.862h19v30.171c20 1.217 37.013 5.355 51.554 12.371 23.803 11.483 35.626 29.902 35.626 55.262 0 19.221-8.529 34.085-25.822 44.654-10.503 6.357-31.358 13.649-61.358 21.892v57.503c12-0.688 21.3-4.863 26.14-11.999 2.816-4.128 4.536-10.854 5.558-19.854h50.764c-0.77 25-11.81 41.833-33.44 52.589-11.921 6.742-28.022 11.021-49.022 12.328v20.083h-19v-19.778c-13-0.836-23.126-2.087-29.949-3.777-11.206-2.722-21.378-7.652-30.509-14.81-7.081-5.521-12.58-12.131-16.514-19.749-3.919-7.662-5.885-16.18-5.885-25.525 0-14.171 5.039-26.303 15.15-36.368 10.094-10.067 27.466-17.918 52.042-23.543l15.665-3.638v-64.434c-15 2.015-24.541 6.401-29.56 13.144-3.227 4.328-5.76 12.478-7.569 25.478h-52.111c-0.379-28 10.444-47.587 32.445-59.157zM520 592.846c10-3.132 18.081-6.131 22.54-9.034 7.51-5.050 11.159-11.906 11.159-20.563 0-11.336-3.863-19.355-11.875-23.986-4.586-2.612-11.824-4.414-21.824-5.416v58.999zM501 638.59c-9 2.301-16.367 4.829-20.888 7.549-8.102 4.91-12.159 11.591-12.159 20.046 0 7.748 2.711 13.875 8.121 18.343 5.416 4.491 13.925 6.821 24.925 7.015v-52.953zM952 591.319c0 165.61-203.088 301.427-446.516 295.341-306.317-15.657-399.277-164.532-423.57-220.647-5.712-13.195-7.707-50.016-7.707-50.016l-1.063-382.924c0-159.091 192.725-297.651 438.759-297.651 246.065 0 438.78 126.5 438.78 288.294-0.001 0 1.317 354.68 1.317 367.603zM511.9 792.767c216.303 0 367.038-106.166 367.038-201.448 0-95.277-150.734-201.441-367.038-201.441-216.29 0-367.022 106.164-367.022 201.441 0 95.283 150.732 201.448 367.022 201.448zM147 420.527c79.746-75.828 212.053-124.541 364.899-124.541 153.499 0 286.451 49.113 366.101 125.48v-63.227c-34.373-94.324-190.667-170.33-366.101-170.33-173.703 0-328.55 74.56-364.899 167.592v65.026zM511.9 14.457c-173.588 0-328.431 74.426-364.9 167.39v53.736c77.957-76.853 210.695-126.699 364.9-126.699 154.861 0 288.258 50.289 366.1 127.761v-52.15c-34.593-94.191-190.851-170.038-366.1-170.038z" />
<glyph unicode="&#xe975;" glyph-name="check" d="M388.908 157.252c-103.651 103.071-207.636 206.473-311.272 309.531 17.038 17.031 34.115 34.104 51.129 51.113 85.813-85.817 172.133-172.141 258.918-258.932 171.725 171.727 342 342.006 511.746 511.755 17.621-17.653 34.819-34.881 51.429-51.517-187.17-187.167-375.005-375.005-561.95-561.95z" />
<glyph unicode="&#xe976;" glyph-name="checkbox-o" d="M804.55 642.849c-14.219 14.29-38.158 13.523-53.473-1.713l-313.6-312.029-152.828 152.828c-15.978 15.978-40.486 17.375-54.74 3.121s-12.857-38.761 3.121-54.738l174.374-174.375c15.017-15.017 37.567-17.15 52.059-5.519 3.438 1.853 6.69 4.235 9.624 7.154l333.479 331.809c15.314 15.237 16.202 39.172 1.984 53.462zM1024 910c0 27.614-22.386 50-50 50h-924c-27.614 0-50-22.386-50-50v-924c0-27.614 22.386-50 50-50h924c27.614 0 50 22.386 50 50v924zM951 59c0-27.614-22.386-50-50-50h-778c-27.614 0-50 22.386-50 50v778c0 27.614 22.386 50 50 50h778c27.614 0 50-22.386 50-50v-778z" />
<glyph unicode="&#xe977;" glyph-name="cloud" d="M516.512 155.737c-100.482 0-200.967 0.608-301.44-0.3-40.11-0.361-76.13 10.889-109.661 31.327-58.241 35.496-91.283 87.963-101.862 154.935-7.599 48.108-3.523 94.902 17.371 139.412 27.348 58.255 71.579 98.839 130.875 123.228 3.649 1.501 5.425 3.398 6.344 7.213 25.859 107.328 92.443 178.365 195.442 214.87 68.064 24.122 137.704 24.773 206.981 3.907 49.471-14.9 89.277-44.549 121.848-84.152 4.607-5.603 9.523-8.423 16.605-10.059 93.41-21.582 154.439-79.35 186.938-168.573 2.592-7.115 2.707-15.909 7.131-21.357 4.271-5.259 12.814-6.889 19.168-10.644 59.574-35.214 97.49-86.27 104.404-155.57 8.82-88.414-29.262-154.685-104.432-200.315-18.963-11.513-39.867-18.553-61.572-23.043-3.588-0.743-7.359-0.842-11.045-0.844-107.7-0.042-215.399-0.035-323.095-0.035zM818.241 482.793c0 2.407 0.010 4.137 0 5.87-0.17 32.744-8.434 63.336-25.863 91.030-29.885 47.489-72.699 74.965-128.795 80.956-6.35 0.678-14.012-1.547-18.852 1.317-5.098 3.017-7.49 10.557-11.148 16.065-23.447 35.295-53.201 63.182-93.558 78.076-40.346 14.888-81.831 16.786-123.824 8.861-99.939-18.862-174.945-99.203-183.444-197.968-0.727-8.458-0.984-16.955-1.45-25.265-6.399-0.919-12.404-1.62-18.349-2.662-74.196-13.009-146.315-80.894-137.056-170.347 5.67-54.787 29.764-96.945 79.044-123.162 19.289-10.261 39.572-15.826 62.056-15.773 196.053 0.462 392.106 0.416 588.161 0.075 24.416-0.044 47.098 5.353 68.836 15.573 57.67 27.112 78.025 80.451 68.238 133.265-6.791 36.636-29.357 63.013-60.242 82.612-19.234 12.206-40.396 19.136-63.754 21.477zM293 521h73v-219h-73v219zM586 448h73v-146h-73v146zM439 594h73v-292h-73v292z" />
<glyph unicode="&#xe978;" glyph-name="dot" d="M584.286 741.571c0-40.396-32.747-73.143-73.143-73.143s-73.143 32.747-73.143 73.143c0 40.396 32.747 73.143 73.143 73.143s73.143-32.747 73.143-73.143zM584.286 447.571c0-40.396-32.747-73.143-73.143-73.143s-73.143 32.747-73.143 73.143c0 40.396 32.747 73.143 73.143 73.143s73.143-32.747 73.143-73.143zM584.286 155.571c0-40.396-32.747-73.143-73.143-73.143s-73.143 32.747-73.143 73.143c0 40.396 32.747 73.143 73.143 73.143s73.143-32.747 73.143-73.143z" />
<glyph unicode="&#xe979;" glyph-name="down-o" d="M512 960c-282.768 0-512-229.231-512-512.002 0-282.768 229.232-511.998 512-511.998 282.771 0 512 229.23 512 511.998 0 282.771-229.229 512.002-512 512.002zM512 9c-242.451 0-439 196.547-439 438.998 0 242.454 196.549 439.002 439 439.002 242.455 0 439-196.548 439-439.001s-196.545-438.999-439-438.999zM539.252 254.377c44.76 44.766 89.186 89.197 133.121 133.135 15.277-15.293 29.484-29.514 42.359-42.404-10.439-11.264-21.045-23.67-32.656-35.055-33.744-33.080-67.885-65.756-101.885-98.574-14.725-14.215-29.293-28.602-44.289-42.525-16.799-15.6-36.906-15.57-53.853 0.008-11.539 10.607-22.57 21.766-33.859 32.652-48.437 46.707-96.887 93.406-145.324 140.113-0.623 0.6-1.163 1.285-1.152 1.271 14.348 14.346 28.602 28.594 43.267 43.256 43.373-43.381 87.829-87.844 133.348-133.369 0 163.314 0 325.221 0 487.687 20.573 0 40.437 0 60.923 0 0-162.196 0-324.164 0-486.195z" />
<glyph unicode="&#xe97a;" glyph-name="budget-plus" d="M523.339 155.292c-7.125 0-13.082 0-19.525 0-1.941-8.397-3.258-16.703-5.797-24.618-10.014-31.231-32.032-52.821-58.509-70.286-42.41-27.971-90.118-41.095-139.896-46.748-63.444-7.205-125.854-1.964-185.791 21.45-38.672 15.106-73.309 36.298-94.732 73.609-10.053 17.505-16.112 36.226-16.011 57.196 0.495 99.886 0.244 199.771 0.188 299.655-0.005 9.691-0.817 19.377-0.712 29.057 0.553 50.318 27.605 84.618 67.834 110.459 40.582 26.070 85.842 38.53 133.324 43.504 18.443 1.933 37.042 2.392 57.578 3.643 0 15.358 2.152 31.678-0.396 47.227-8.28 50.51 13.74 87.092 51.417 116.447 40.282 31.387 87.652 46.204 137.4 52.758 64.87 8.546 129.022 4.792 190.923-18.603 35.671-13.485 67.647-32.696 91.057-63.715 17.228-22.829 23.45-48.789 22.85-77.355-1.171-55.359-1.066-110.745-1.419-166.124-0.12-19.387-0.017-38.778-0.017-61.604 17.772 0 35.036 1.137 52.108-0.209 55.901-4.407 108.97-18.498 155.907-50.541 31.75-21.673 55.623-49.432 61.261-89.019 1.804-12.693 1.221-25.767 1.256-38.662 0.132-44.891-0.902-89.806 0.303-134.657 1.39-51.829-21.277-89.847-63.035-118.098-38.949-26.349-82.716-40.012-128.732-46.003-66.182-8.607-131.339-4.342-194.083 20.789-26.463 10.599-50.889 24.557-71.919 43.975-24.951 23.040-41.093 50.617-42.832 86.473zM773.164 240.659c28.218 4.213 56.786 6.883 84.576 13.044 32.518 7.215 63.115 19.978 86.978 44.725 19.583 20.306 20.608 40.341-0.343 58.869-15.135 13.378-32.584 25.92-51.195 33.294-75.582 29.959-152.663 30.032-229.54 4.51-26.584-8.826-51.431-21.718-68.649-45.241-10.961-14.979-12.087-27.95-0.363-42.085 9.586-11.557 21.235-22.409 34.060-30.082 44.19-26.45 93.417-33.844 144.476-37.034zM250.335 412.916c28.261 4.208 56.866 6.866 84.692 13.034 32.933 7.301 64.044 19.999 88.227 45.084 18.466 19.156 18.944 37.85-0.472 55.832-11.674 10.811-25.228 20.289-39.367 27.604-34.581 17.896-72.258 24.913-110.867 27.241-52.366 3.157-103.158-3.478-151.15-25.716-18.106-8.392-34.672-19.307-46.427-35.999-10.655-15.137-11.818-28.7 0.581-42.043 11.853-12.75 25.791-24.678 40.988-32.997 41.316-22.607 86.813-29.034 133.795-32.040zM501.358 804.383c-12.379-1.279-32.573-2.438-52.426-5.702-15.824-2.602-31.559-6.797-46.736-12.015-24.971-8.593-48.596-20.070-66.063-40.943-15.003-17.925-15.742-33.917 0.382-50.677 10.728-11.148 23.529-21.196 37.139-28.503 42.969-23.071 89.992-30.149 138.104-29.745 44.789 0.379 88.722 7.141 128.498 29.1 14.174 7.826 27.425 18.667 38.399 30.612 14.538 15.816 14.477 31.964-0.165 47.793-11.015 11.909-24.298 22.677-38.473 30.516-40.52 22.414-85.3 28.146-138.659 29.564zM584.164 221.174c0-21.361 1.009-42.425-0.327-63.347-1.022-16.006 3.564-29.66 15.263-38.903 15.67-12.379 32.23-24.846 50.4-32.62 59.087-25.286 121.040-29.461 184.009-18.572 38.511 6.663 75.279 18.279 106.237 43.617 15.883 13.003 25.008 28.86 23.358 50.414-1.172 15.276-0.238 30.707-0.46 46.068-0.064 4.537-0.862 9.058-1.247 12.818-126.433-63.636-251.018-63.542-377.233 0.525zM65.116 392.885c0-19.044 1.437-38.158-0.351-56.959-2.421-25.482 9.239-42.575 28.705-55.855 9.604-6.55 19.769-12.631 30.405-17.271 63.912-27.875 130.266-31.571 197.938-18.054 35.49 7.091 69.244 18.827 97.597 42.556 12.94 10.829 21.233 23.433 20.026 41.684-1.229 18.505-0.23 37.154-0.318 55.74-0.016 2.914-0.621 5.829-0.832 7.687-124.658-61.143-248.097-62.703-373.17 0.472zM65.116 222.269c0-17.014 1.461-34.538-0.355-51.715-2.487-23.586 8.188-39.772 25.574-52.696 9.975-7.418 20.682-14.344 31.998-19.372 64.573-28.699 131.764-32.575 200.289-18.608 35.47 7.229 69.846 18.423 96.932 43.69 8.928 8.329 17.848 20.563 19.447 32.028 3.063 22.011 0.891 44.746 0.891 66.845-125.815-62.449-249.524-64.42-374.776-0.172zM690.891 616.881c-66.115-42.122-137.412-51.493-215.302-47.941 35.639-31.863 28.283-71.338 28.916-112.254 27.278 3.538 53.365 5.291 78.707 10.603 35.013 7.348 68.555 19.672 93.447 47.152 6.651 7.342 12.839 17.787 13.595 27.253 1.914 24.054 0.637 48.36 0.637 75.187zM505.131 395.975c0-59.698 0-118.809 0-178.113 6.202 0 11.626 0 17.646 0 1.051 34.52 2.32 68.295 3.040 102.083 0.566 26.565-1.524 53.583 17.327 75.937 0.258 0.304-0.354 1.344-0.632 2.281-12.333-0.723-24.681-1.443-37.381-2.188z" />
<glyph unicode="&#xe97b;" glyph-name="process-add" d="M80.078 305.456c0.633 0 1.371 0 2.003 0.105 18.558 1.054 32.792 17.081 31.737 35.639-0.421 7.17-0.632 14.446-0.632 21.51 0 135.384 74.862 257.905 195.38 319.903 16.555 8.541 23.091 28.891 14.549 45.445-8.539 16.554-28.89 23.092-45.443 14.551-68.747-35.322-126.633-88.676-167.65-154.364-42.070-67.587-64.319-145.507-64.319-225.535 0-8.435 0.211-16.976 0.739-25.517 1.055-17.82 15.923-31.737 33.636-31.737zM473.791 618.084c72.859 0 131.904 59.046 131.904 131.905s-59.045 132.011-131.904 132.011c-72.86 0-131.907-59.046-131.907-131.905s59.047-132.011 131.907-132.011zM473.791 814.519c35.533 0 64.422-28.891 64.422-64.424s-28.889-64.424-64.422-64.424c-35.535 0-64.423 28.891-64.423 64.424s28.888 64.424 64.423 64.424zM638.699 681.664c119.252-62.209 193.377-184.413 193.377-318.85 0-7.803-0.211-15.815-0.74-23.617-1.158-18.559 12.865-34.691 31.527-35.852 0.738 0 1.477-0.105 2.215-0.105 17.607 0 32.473 13.709 33.635 31.527 0.633 9.278 0.949 18.769 0.949 28.047 0 79.502-22.037 157.106-63.686 224.376-40.488 65.372-97.85 118.726-165.963 154.259-16.553 8.645-36.904 2.213-45.549-14.34-8.753-16.448-2.319-36.903 14.235-45.445zM246.357 228.169c-24.463 42.28-68.747 66.005-114.402 66.005-22.354 0-45.023-5.693-65.899-17.715-63.16-36.482-84.774-117.144-48.292-180.196 24.461-42.281 68.747-66.005 114.401-66.005 22.354 0 45.023 5.693 65.9 17.713 63.054 36.377 84.669 117.040 48.292 180.198zM164.325 106.386c-9.912-5.695-20.772-8.647-32.16-8.647-11.176 0-22.247 2.952-31.947 8.436-9.912 5.588-18.242 13.813-24.041 23.829-17.819 30.787-7.169 70.328 23.619 88.044 9.911 5.695 20.772 8.645 32.16 8.645 11.176 0 22.247-2.949 31.947-8.434 9.911-5.589 18.241-13.813 24.041-23.829 17.713-30.791 7.169-70.333-23.619-88.044zM663.688 58.197c-57.148-35.953-123.154-54.934-191.057-54.934-68.536 0-135.28 19.402-192.85 55.989-15.711 10.016-36.587 5.378-46.604-10.332s-5.377-36.587 10.333-46.604c68.43-43.548 147.615-66.639 229.121-66.639 80.557 0 159.004 22.563 226.906 65.267 15.816 9.91 20.561 30.788 10.65 46.497-9.912 15.924-30.789 20.67-46.499 10.756zM878.047 274.456c-20.771 12.020-43.441 17.715-65.9 17.715-45.549 0-89.939-23.617-114.4-66.005-36.482-63.158-14.764-143.821 48.289-180.199 20.771-12.018 43.441-17.711 65.9-17.711 45.551 0 89.941 23.617 114.404 66.005 36.375 63.052 14.76 143.714-48.293 180.195zM867.926 127.894c-5.801-10.016-14.023-18.239-24.041-23.828-9.699-5.484-20.771-8.437-31.949-8.437-11.387 0-22.143 2.952-32.158 8.647-30.789 17.819-41.332 57.253-23.617 88.041 5.797 10.019 14.021 18.243 24.037 23.83 9.701 5.482 20.773 8.437 31.949 8.437 11.389 0 22.143-2.954 32.055-8.645 30.892-17.717 41.437-57.256 23.724-88.045zM513 479.5c0 20.158-16.342 36.5-36.5 36.5s-36.5-16.342-36.5-36.5v-109.5h-118.5c-20.158 0-36.5-16.342-36.5-36.5s16.342-36.5 36.5-36.5h118.5v-110.5c0-20.158 16.342-36.5 36.5-36.5s36.5 16.342 36.5 36.5v110.5h101.5c20.158 0 36.5 16.342 36.5 36.5s-16.342 36.5-36.5 36.5h-101.5v109.5z" />
<glyph unicode="&#xe97c;" glyph-name="edit-o" d="M512 960c-282.768 0-512-229.231-512-512.002 0-282.768 229.232-511.998 512-511.998 282.771 0 512 229.23 512 511.998 0 282.771-229.229 512.002-512 512.002zM512 9c-242.451 0-439 196.547-439 438.998 0 242.454 196.549 439.002 439 439.002 242.455 0 439-196.548 439-439.001s-196.545-438.999-439-438.999zM306.579 298.4l-14.007-69.829 71.992 16.17 361.68 361.683-57.408 54.234zM682.629 674.451l57.408-54.234c0 0 28.006 28.191 29.141 29.654l-56.034 54.129c-0.676-0.599-30.515-29.549-30.515-29.549z" />
<glyph unicode="&#xe97d;" glyph-name="process-ed" d="M517.324 675.616c78.51 0 142.134 63.625 142.134 142.135s-63.624 142.249-142.134 142.249c-78.511 0-142.137-63.625-142.137-142.135s63.626-142.249 142.137-142.249zM517.324 887.286c38.288 0 69.419-31.131 69.419-69.421s-31.131-69.42-69.419-69.42c-38.29 0-69.42 31.131-69.42 69.42s31.13 69.421 69.42 69.421zM952.932 305.337c-22.383 12.952-46.81 19.089-71.011 19.089-49.082 0-96.915-25.449-123.273-71.124-39.312-68.057-15.907-154.976 52.035-194.174 22.383-12.95 46.811-19.086 71.011-19.086 49.084 0 96.916 25.449 123.276 71.124 39.197 67.943 15.905 154.86-52.038 194.171zM942.025 147.408c-6.251-10.793-15.11-19.654-25.905-25.677-10.452-5.909-22.383-9.090-34.427-9.090-12.27 0-23.859 3.181-34.652 9.317-33.176 19.201-44.538 61.693-25.449 94.869 6.247 10.796 15.109 19.657 25.902 25.679 10.454 5.907 22.384 9.090 34.427 9.090 12.271 0 23.859-3.183 34.541-9.314 33.288-19.092 44.65-61.697 25.563-94.874zM695.021 744.127c128.501-67.034 208.375-198.716 208.375-343.578 0-8.408-0.228-17.043-0.796-25.45-1.25-19.997 13.862-37.381 33.972-38.631 0.796 0 1.591-0.113 2.386-0.113 18.975 0 34.993 14.771 36.244 33.972 0.682 9.998 1.022 20.225 1.022 30.223 0 85.668-23.745 169.29-68.625 241.778-43.628 70.442-105.438 127.933-178.834 166.222-17.837 9.316-39.766 2.385-49.081-15.452-9.433-17.726-2.501-39.767 15.337-48.971zM721.949 72.307c-61.582-38.742-132.706-59.194-205.875-59.194-73.852 0-145.772 20.906-207.807 60.331-16.929 10.793-39.425 5.796-50.219-11.133s-5.794-39.425 11.134-50.218c73.737-46.926 159.064-71.808 246.892-71.808 86.804 0 171.335 24.313 244.504 70.329 17.042 10.679 22.155 33.176 11.477 50.104-10.681 17.157-33.178 22.271-50.106 11.589zM93.076 338.741c0.682 0 1.477 0 2.158 0.114 19.997 1.136 35.335 18.405 34.199 38.402-0.454 7.726-0.681 15.566-0.681 23.178 0 145.884 80.668 277.907 210.533 344.714 17.838 9.203 24.881 31.132 15.678 48.97-9.201 17.838-31.131 24.882-48.968 15.679-74.079-38.062-136.454-95.553-180.652-166.336-45.333-72.828-69.307-156.791-69.307-243.026 0-9.089 0.228-18.292 0.796-27.495 1.136-19.203 17.157-34.2 36.244-34.2zM272.25 255.46c-26.359 45.56-74.079 71.124-123.274 71.124-24.087 0-48.515-6.135-71.010-19.088-68.058-39.312-91.349-126.229-52.037-194.172 26.359-45.561 74.078-71.124 123.274-71.124 24.087 0 48.515 6.135 71.011 19.086 67.943 39.198 91.235 126.117 52.036 194.174zM183.857 124.231c-10.681-6.137-22.383-9.317-34.654-9.317-12.043 0-23.973 3.181-34.425 9.090-10.68 6.021-19.657 14.884-25.906 25.677-19.201 33.176-7.725 75.782 25.451 94.872 10.68 6.137 22.383 9.315 34.654 9.315 12.043 0 23.973-3.179 34.425-9.088 10.68-6.022 19.656-14.885 25.905-25.678 19.087-33.177 7.726-75.785-25.45-94.871zM483.241 288.166c12.449-12.4 31.833-12.461 44.166-0.076 64.99 65.242 129.926 130.537 194.775 195.92 14.434 14.552 15.072 33.214 2.117 46.266-12.914 13.010-31.752 12.090-46.252-2.377-28.492-28.429-56.953-56.889-85.391-85.374-28.875-28.926-57.705-57.893-88.047-88.338-11.081 11.348-21.098 21.754-31.278 31.998-17.704 17.815-35.306 35.735-53.333 53.215-14.598 14.156-34.431 13.254-46.792-1.475-10.875-12.959-9.915-29.646 2.91-42.547 35.621-35.825 71.333-71.558 107.125-107.212z" />
<glyph unicode="&#xe97e;" glyph-name="process-exchange" d="M588.627 944.353l-11.371-68.92c-46.432 4.602-94.381 1.839-142.327-9.465-184.3-43.458-313.195-198.405-332.174-376.566 8.245-28.902 56.745-30.402 64.268 12.635 23.104 144.551 130.846 267.891 282.156 303.568 39.723 9.367 79.416 11.8 117.938 8.387l-9.541-57.836c-2.665-16.116 7.362-23.837 22.267-17.151l152.319 68.359c14.903 6.687 17.313 21.263 5.353 32.375l-122.313 113.703c-11.933 11.116-23.907 7.028-26.575-9.089zM903.832 396.501c-19.009-149.568-128.447-278.682-283.837-315.322-47.324-11.158-94.624-12.531-139.94-5.807l20.545 62.354c5.113 15.519-3.601 24.71-19.354 20.398l-161.039-44.014c-15.751-4.309-20.373-18.353-10.269-31.184l103.3-131.174c10.104-12.816 22.557-10.627 27.673 4.891l19.456 59.001c56.075-9.758 114.97-8.703 173.858 5.182 192.072 45.29 323.966 211.664 333.984 399.205-7.209 28.969-60.209 25.469-64.377-23.53zM68.492 313.33c-18.55-69.081 22.412-140.121 91.494-158.672 69.080-18.55 140.119 22.411 158.67 91.492 18.552 69.081-22.41 140.12-91.492 158.671-69.080 18.552-140.119-22.411-158.672-91.491zM256.116 262.946c-9.276-34.542-44.795-55.023-79.335-45.746-34.541 9.274-55.022 44.795-45.746 79.336 9.274 34.539 44.795 55.021 79.336 45.745 34.539-9.275 55.022-44.795 45.745-79.335zM723.229 654.707c-18.55-69.082 22.412-140.121 91.494-158.672 69.080-18.551 140.119 22.41 158.67 91.492 18.552 69.080-22.41 140.119-91.492 158.67-69.080 18.553-140.119-22.41-158.672-91.49zM910.854 604.322c-9.276-34.541-44.795-55.023-79.335-45.746-34.541 9.275-55.022 44.795-45.746 79.336 9.274 34.539 44.795 55.021 79.336 45.746 34.538-9.275 55.021-44.795 45.745-79.336z" />
<glyph unicode="&#xe97f;" glyph-name="grid-l" d="M1024 960h-1024v-1024h1024v1024zM73 9v585h878v-585h-878zM951 667h-878v220h878v-220z" />
<glyph unicode="&#xe980;" glyph-name="grid-m" d="M0 960v-1024h1024v1024h-1024zM293 9h-220v878h220v-878zM658 9h-292v878h292v-878zM951 9h-220v878h220v-878z" />
<glyph unicode="&#xe981;" glyph-name="grid-s" d="M1024 960h-1024v-1024h1024v1024zM475 887v-878h-402v878h402zM951 9h-402v878h402v-878z" />
</font>
</defs>
</svg>
